<svg width="357" height="357" viewBox="0 0 357 357" fill="none" xmlns="http://www.w3.org/2000/svg">
<path d="M280.363 147.724H184.09V87.8274H280.363V147.724Z" fill="#93DCFD"/>
<path d="M280.363 87.827H184.09V83.7816C184.09 81.204 186.179 79.115 188.756 79.115H275.696C278.274 79.115 280.362 81.204 280.362 83.7816V87.827" fill="#F3AB1D"/>
<path d="M222.507 123.822L197.654 139.285L203.617 139.348C207.224 135.542 210.465 132.808 212.884 131.967C216.008 130.882 218.684 130.495 220.912 130.495C224.244 130.495 226.572 131.359 227.888 132.039L228.479 130.849C228.478 130.847 228.478 130.845 228.476 130.843C228.14 130.144 227.47 129.316 227.424 129.26C226.175 128.057 224.348 127.452 222.983 125.038C222.798 124.713 222.641 124.3 222.507 123.822ZM280.363 87.8274L248.615 90.2193L242.609 102.338C245.404 103.297 248.25 104.45 250.102 106.654L280.363 87.8274Z" fill="#5DCAFC"/>
<path d="M228.478 130.849L227.888 132.04C228.37 132.289 228.716 132.513 228.926 132.662C228.844 132.21 228.755 131.77 228.666 131.422C228.608 131.22 228.545 131.027 228.478 130.849ZM280.362 87.8274L250.102 106.654C250.819 107.507 251.387 108.517 251.745 109.734C251.99 110.559 252.109 111.388 252.128 112.21C252.281 118.3 246.98 124.036 245.723 125.309L246.371 131.537L248.03 131.411C248.656 131.292 249.465 131.195 250.432 131.195C253.347 131.195 257.694 132.081 262.763 135.952C266.752 138.999 267.97 143.529 268.06 147.724H220.116H280.362V87.8274" fill="#2EAFFA"/>
<path d="M249.8 87.8274H184.09V95.081L248.615 90.2193L249.8 87.8274Z" fill="#BEEAFE"/>
<path d="M280.363 87.8274H249.8L248.615 90.2193L280.363 87.8274Z" fill="#82DFFD"/>
<path d="M196.392 147.723C202.759 139.796 208.922 133.344 212.885 131.966C223.714 128.202 229.172 132.846 229.172 132.846L246.531 131.823C246.531 131.823 253.418 128.813 262.764 135.95C266.753 138.997 267.971 143.527 268.061 147.722L196.392 147.723Z" fill="#F05A3C"/>
<path d="M240.489 147.724H227.041C225.988 137.766 229.172 132.847 229.172 132.847L248.034 131.41C248.034 131.41 243.968 137.782 241.812 143.803C241.45 144.818 240.994 146.175 240.489 147.724Z" fill="#D3EEFB"/>
<path d="M248.034 131.41L238.522 145.487L233.401 139.425L226.822 143.293L229.172 132.847L248.034 131.41Z" fill="#26A0DA"/>
<path d="M235.667 142.107L232.296 144.427L230.367 141.206L233.4 139.423L235.667 142.107Z" fill="#591C16"/>
<path d="M232.04 147.723L232.296 144.427L232.913 147.723H232.04Z" fill="#591C16"/>
<path d="M219.083 147.724C219.771 145.644 220.836 143.083 222.448 140.585C226.078 134.961 229.172 132.847 229.172 132.847L231.356 147.724H219.083ZM237.807 147.724C237.894 147.445 237.979 147.171 238.068 146.905C240.719 138.833 248.034 131.41 248.034 131.41L247.818 147.723L237.807 147.724ZM221.931 112.287C221.931 112.287 217.679 109.868 217.167 106.419C216.658 102.972 220.026 103.511 220.026 103.511C220.026 103.511 219.571 94.9177 225.787 93.6735C232.004 92.4318 234.328 99.3415 238.98 101.093C243.636 102.845 250.046 103.968 251.745 109.734C254.029 117.489 245.46 125.569 245.46 125.569L221.931 112.287Z" fill="#591C16"/>
<path d="M222.066 109.962C222.066 109.962 221.138 121.788 222.983 125.039C224.826 128.296 227.511 128.26 228.477 130.844C229.447 133.428 229.552 138.95 229.552 138.95C229.552 138.95 232.923 139.981 238.243 137.152C243.568 134.321 246.391 131.715 246.391 131.715L245.339 121.611C245.339 121.611 249.18 119.735 249.718 116.41C250.257 113.087 248.112 110.557 244.666 110.468C241.226 110.374 241.538 117.403 241.346 117.699C241.152 117.996 239.16 117.439 238.002 115.664C236.845 113.886 237.73 113.402 236.619 112.427C235.512 111.449 230.527 112.074 227.101 111.461C223.671 110.844 222.066 109.962 222.066 109.962Z" fill="#F3BA95"/>
<path d="M227.425 129.26C227.471 129.317 228.141 130.144 228.477 130.843C228.227 130.174 227.861 129.68 227.425 129.26Z" fill="#2EAFFA"/>
<path d="M228.667 131.422C228.756 131.77 228.845 132.211 228.927 132.662C228.94 132.671 228.951 132.679 228.963 132.687C228.877 132.238 228.779 131.81 228.667 131.422Z" fill="#1787F7"/>
<path d="M228.927 132.662C228.946 132.769 228.965 132.877 228.984 132.984C228.994 132.977 229.004 132.969 229.013 132.962C228.997 132.87 228.98 132.778 228.962 132.687C228.951 132.679 228.939 132.671 228.927 132.662Z" fill="#E82D1E"/>
<path d="M229.013 132.963C229.004 132.97 228.994 132.977 228.984 132.985C229.161 134.008 229.292 134.989 229.292 134.989H229.293C229.221 134.315 229.13 133.621 229.013 132.963Z" fill="#2C0E0B"/>
<path d="M238.623 127.857C238.623 127.857 236.454 129.824 233.106 130.171C232.7 130.213 232.31 130.231 231.936 130.231C229.229 130.231 227.422 129.257 227.422 129.257C227.422 129.257 227.423 129.258 227.425 129.26C227.861 129.68 228.227 130.174 228.477 130.843C228.539 130.967 228.603 131.17 228.667 131.422C228.779 131.809 228.878 132.238 228.963 132.687C228.98 132.778 228.998 132.87 229.014 132.962C229.13 133.62 229.222 134.314 229.294 134.988C229.356 134.978 231.938 134.567 234.069 133.091C236.22 131.602 238.623 127.857 238.623 127.857Z" fill="#ED9760"/>
<path d="M244.413 118.886L244.292 118.841C244.263 118.817 243.585 118.219 243.336 116.497C243.08 114.782 244.001 113.192 244.041 113.125C244.094 113.035 244.209 113.007 244.298 113.058C244.387 113.111 244.417 113.226 244.364 113.315C244.355 113.33 243.471 114.86 243.707 116.443C243.935 118.009 244.531 118.553 244.538 118.558C244.615 118.626 244.624 118.744 244.556 118.822L244.413 118.886Z" fill="#591C16"/>
<path d="M243.482 116.332L243.392 116.309C243.303 116.259 243.269 116.147 243.317 116.056C243.334 116.024 243.746 115.288 245.041 114.967C246.341 114.643 247.412 115.444 247.457 115.478C247.539 115.541 247.555 115.658 247.493 115.74C247.43 115.823 247.313 115.839 247.231 115.776C247.221 115.769 246.25 115.052 245.133 115.331C244.009 115.609 243.651 116.229 243.648 116.235C243.612 116.297 243.548 116.332 243.482 116.332ZM227.257 122.507H227.254C227.178 122.506 225.397 122.468 225.045 121.359C224.714 120.331 226.556 116.491 226.767 116.057C226.813 115.964 226.927 115.926 227.018 115.97C227.111 116.015 227.15 116.128 227.105 116.221C226.302 117.872 225.186 120.573 225.403 121.244C225.674 122.099 227.244 122.131 227.26 122.131C227.364 122.133 227.446 122.218 227.445 122.321C227.443 122.425 227.359 122.507 227.257 122.507ZM224.512 123.677C224.512 123.677 230.541 124.391 230.442 124.379C230.342 124.367 230.137 126.427 227.615 126.517C225.094 126.607 224.517 124.172 224.512 123.677ZM232.858 116.906C232.789 117.457 232.414 117.859 232.022 117.814C231.631 117.765 231.37 117.286 231.441 116.738C231.517 116.189 231.886 115.785 232.281 115.831C232.671 115.881 232.93 116.36 232.858 116.906ZM224.275 116.08C224.207 116.622 223.829 117.03 223.438 116.985C223.045 116.941 222.788 116.457 222.858 115.909C222.931 115.362 223.307 114.956 223.697 115.002C224.088 115.049 224.345 115.527 224.275 116.08ZM221.606 114.208L221.517 114.185C221.426 114.136 221.392 114.023 221.441 113.932C221.456 113.904 221.831 113.227 223.002 112.918C224.162 112.61 224.639 112.932 224.689 112.969C224.772 113.031 224.789 113.148 224.727 113.231C224.665 113.315 224.546 113.331 224.465 113.27C224.464 113.27 224.079 113.02 223.098 113.281C222.096 113.545 221.773 114.105 221.771 114.111C221.736 114.173 221.672 114.208 221.606 114.208ZM235.178 115.146C235.103 115.146 235.033 115.101 235.004 115.028C235.002 115.025 234.792 114.546 233.935 114.09C233.063 113.615 231.896 113.842 231.884 113.845C231.78 113.866 231.685 113.8 231.664 113.699C231.643 113.598 231.708 113.499 231.81 113.478C231.864 113.468 233.123 113.221 234.113 113.76C235.101 114.288 235.342 114.865 235.352 114.888C235.39 114.985 235.344 115.094 235.247 115.132L235.178 115.146Z" fill="#591C16"/>
<path d="M227.236 93.5251C226.777 93.5251 226.294 93.5722 225.786 93.6739C226.294 93.5727 226.775 93.5257 227.234 93.5257C232.398 93.5257 234.707 99.4853 238.979 101.094C240.115 101.521 241.356 101.911 242.608 102.341L242.609 102.338C241.359 101.909 240.119 101.519 238.984 101.091C234.709 99.4865 232.399 93.5251 227.236 93.5251Z" fill="#DFF5FE"/>
<path d="M242.609 102.338L242.608 102.34C245.402 103.299 248.248 104.453 250.101 106.655L250.103 106.654C248.25 104.45 245.404 103.297 242.609 102.338Z" fill="#9EEFFE"/>
<path d="M250.102 106.654L250.1 106.655C250.818 107.507 251.386 108.517 251.744 109.734C251.987 110.559 252.107 111.387 252.128 112.21C252.109 111.388 251.99 110.559 251.745 109.734C251.387 108.517 250.819 107.506 250.102 106.654Z" fill="#4EE7FE"/>
<path d="M221.103 97.6077C221.102 97.6101 221.102 97.6113 221.101 97.6136C221.102 97.6113 221.102 97.6095 221.103 97.6077ZM225.708 93.6896C223.306 94.1983 221.914 95.8132 221.111 97.5904C221.916 95.8132 223.308 94.1989 225.708 93.6896ZM225.746 93.6819C225.737 93.6837 225.729 93.6855 225.721 93.6872C225.729 93.6849 225.737 93.6831 225.746 93.6819Z" fill="#DFF5FE"/>
<path d="M227.234 93.5251C226.775 93.5251 226.293 93.5721 225.786 93.6733C225.773 93.6763 225.759 93.6787 225.745 93.6816C225.737 93.6834 225.729 93.6852 225.72 93.687C225.716 93.6882 225.712 93.6888 225.708 93.69C223.308 94.1993 221.916 95.8135 221.111 97.5908C221.109 97.5967 221.106 97.6027 221.103 97.608C221.103 97.6098 221.101 97.6116 221.101 97.614C220.509 98.9301 220.239 100.334 220.117 101.44C220.118 101.437 222.577 96.3157 225.332 95.9843C225.426 95.973 225.52 95.9676 225.613 95.9676C228.213 95.9682 229.976 100.347 233.208 102.822C236.565 105.378 238.659 105.22 239.147 106.031C239.636 106.842 239.504 108.137 240.012 108.181C240.019 108.181 240.026 108.181 240.033 108.181C240.522 108.181 240.745 106.781 242.141 106.552C242.244 106.535 242.366 106.526 242.502 106.526C244.233 106.526 248.435 107.884 250.198 109.694C252.033 111.581 251.963 114.234 251.955 114.409C252.082 113.687 252.147 112.951 252.129 112.209C252.109 111.387 251.988 110.559 251.746 109.734C251.387 108.517 250.819 107.507 250.102 106.654C248.249 104.452 245.403 103.298 242.609 102.339C241.358 101.91 240.117 101.52 238.98 101.092C234.707 99.4847 232.398 93.5251 227.234 93.5251Z" fill="#973025"/>
<path d="M244.607 110.46C243.839 110.46 243.261 110.82 242.829 111.374L242.83 111.373C243.264 110.822 243.837 110.468 244.598 110.468C244.62 110.468 244.643 110.469 244.666 110.469C247.572 110.544 249.552 112.355 249.778 114.913C249.554 112.352 247.573 110.536 244.667 110.461C244.647 110.46 244.626 110.46 244.607 110.46Z" fill="#7D271F"/>
<path d="M244.598 110.467C243.838 110.467 243.264 110.821 242.831 111.372C242.892 111.299 243.202 110.979 243.925 110.979C244.238 110.979 244.628 111.039 245.108 111.206C246.843 111.807 248.616 112.432 249.094 115.154C249.503 117.507 248.564 118.934 248.292 119.277C248.964 118.5 249.533 117.539 249.718 116.404C249.802 115.885 249.821 115.386 249.78 114.912C249.553 112.353 247.573 110.543 244.667 110.468C244.644 110.467 244.621 110.467 244.598 110.467Z" fill="#F8D6BF"/>
<path d="M242.83 111.374C242.822 111.383 242.818 111.388 242.818 111.388C242.821 111.385 242.823 111.382 242.826 111.379L242.826 111.378C242.828 111.377 242.829 111.375 242.83 111.374Z" fill="#7D271F"/>
<path d="M242.826 111.378L242.825 111.379L242.826 111.378Z" fill="#F8D6BF"/>
<path d="M238.623 140.285C238.623 143.378 236.115 145.885 233.023 145.885C229.93 145.885 227.423 143.378 227.423 140.285C227.423 137.192 229.93 134.685 233.023 134.685C236.115 134.685 238.623 137.192 238.623 140.285Z" fill="white"/>
<path d="M228.59 141.184L229.208 139.265C229.235 139.184 229.311 139.129 229.395 139.129H236.433C236.512 139.129 236.583 139.176 236.614 139.248L237.45 141.166C237.507 141.296 237.411 141.442 237.269 141.442H235.445C235.313 141.442 235.219 141.316 235.256 141.19L235.445 140.538C235.482 140.411 235.387 140.285 235.256 140.285H230.863C230.72 140.285 230.625 140.433 230.683 140.564L230.954 141.163C231.013 141.294 230.917 141.441 230.774 141.441H228.777C228.643 141.441 228.548 141.311 228.59 141.184Z" fill="#F05A3C"/>
<path d="M217.881 145.815C220.625 145.815 222.848 143.591 222.848 140.848C222.848 138.104 220.625 135.881 217.881 135.881C215.138 135.881 212.914 138.104 212.914 140.848C212.914 143.591 215.138 145.815 217.881 145.815Z" fill="white"/>
<path d="M215.629 139.407V142.112H216.578L219.53 144.01V137.685L216.578 139.372L215.629 139.407Z" fill="#591C16"/>
<path d="M252.738 140.848C252.738 143.591 250.515 145.815 247.771 145.815C245.028 145.815 242.803 143.591 242.803 140.848C242.803 138.104 245.028 135.881 247.771 135.881C250.515 135.881 252.738 138.104 252.738 140.848Z" fill="white"/>
<path d="M247.771 142.129C247.053 142.129 246.471 141.547 246.471 140.829V138.985C246.471 138.267 247.053 137.685 247.771 137.685C248.489 137.685 249.071 138.268 249.071 138.985V140.829C249.071 141.547 248.489 142.129 247.771 142.129Z" fill="#591C16"/>
<path d="M248.033 141.11H247.509V143.875H248.033V141.11Z" fill="#591C16"/>
<path d="M249.212 143.482H246.33V143.874H249.212V143.482Z" fill="#591C16"/>
<path d="M249.791 138.015L245.512 143.214L245.748 143.408L250.028 138.209L249.791 138.015Z" fill="#591C16"/>
<path d="M98.9118 117.03C98.6762 117.736 98.5691 118.444 98.5763 119.164C98.5834 119.574 98.6292 119.988 98.703 120.401C99.0404 122.208 100.084 124.002 101.691 125.651C102.02 125.978 102.237 126.176 102.237 126.176C102.407 126.34 102.585 126.499 102.771 126.662C102.957 126.825 103.146 126.981 103.343 127.143C104.774 128.279 106.495 129.334 108.454 130.254C115.573 133.571 132.06 138.499 139.696 132.025C147.331 125.55 141.15 115.826 140.913 110.561C140.674 105.286 142.611 96.0592 131.042 99.2097C131.042 99.2097 130.113 95.4772 122.714 96.9237C115.311 98.3755 115.184 103.939 110.098 108.096C104.996 112.251 100.476 112.269 98.9118 117.03Z" fill="#292466"/>
<path d="M143.429 125.018C143.394 125.052 142.214 126.303 140.322 126.844C140.862 127.587 141.471 128.565 141.972 129.406C142.837 128.009 143.274 126.528 143.429 125.018ZM137.456 109.8C137.456 109.8 136.838 110.126 136.058 110.236C135.652 110.293 135.294 110.306 135.043 110.306C134.881 110.306 134.764 110.3 134.708 110.297C134.623 111.363 134.114 116.434 132.033 118.116C130.659 119.227 129.562 119.831 128.783 120.311C128.789 120.309 128.791 120.308 128.791 120.308C128.791 120.308 128.034 120.843 127.688 121.204C129.579 121.533 131.579 121.936 133.125 122.309C133.428 122.371 133.763 122.453 134.121 122.558C134.072 122.302 134.034 122.056 134 121.828C133.723 119.938 134.89 119.465 135.496 118.065C136.101 116.668 134.863 112.965 135.082 112.284C135.303 111.603 135.525 110.984 136.2 110.715C136.875 110.449 137.456 109.8 137.456 109.8ZM112.71 112.764C111.461 113.697 109.784 115.51 109.738 118.54C109.721 119.767 108.44 120.147 106.707 120.147C104.099 120.147 100.467 119.287 98.5759 119.164C98.5831 119.573 98.6289 119.987 98.7027 120.4C99.04 122.208 100.084 124.001 101.691 125.65C101.782 125.741 101.864 125.822 101.936 125.891C102.224 125.546 102.531 125.212 102.864 124.887C103.741 123.939 104.388 123.42 104.388 123.42C104.388 123.42 105.148 122.978 106.115 122.465C106.116 122.465 106.118 122.463 106.118 122.463C106.605 122.18 107.09 121.936 107.574 121.725C108.024 121.509 108.463 121.313 108.847 121.166C108.856 121.152 108.865 121.138 108.873 121.124C108.991 121.092 109.111 121.06 109.232 121.03C109.424 120.969 109.594 120.927 109.732 120.91C111.218 120.569 112.807 120.352 114.131 120.216C114.67 120.085 115.154 119.988 115.558 119.916L116.133 117.084C116.133 117.084 113.402 116.708 112.787 113.463C112.742 113.218 112.716 112.985 112.71 112.764Z" fill="#413A9F"/>
<path d="M135.158 98.5681C134.023 98.5681 132.666 98.7668 131.044 99.2089C132.666 98.7668 134.022 98.5687 135.157 98.5687C139.136 98.5687 140.379 101.011 140.753 103.95C140.754 103.953 140.754 103.955 140.755 103.957C140.382 101.016 139.142 98.5675 135.158 98.5681Z" fill="white"/>
<path d="M135.157 98.5698C134.022 98.5698 132.666 98.768 131.044 99.21C131.044 99.21 132.068 99.0143 133.486 99.0143C134.527 99.0143 135.779 99.1202 136.993 99.4867C139.768 100.327 140.701 103.752 140.754 103.952C140.379 101.012 139.136 98.5698 135.157 98.5698Z" fill="#413A9F"/>
<path d="M113.895 103.804C112.872 105.257 111.744 106.749 110.096 108.094C109.111 108.897 108.149 109.547 107.224 110.105C108.149 109.547 109.114 108.899 110.1 108.096C111.746 106.75 112.872 105.257 113.895 103.804ZM130.076 97.8382C130.869 98.5129 131.043 99.209 131.043 99.209C131.043 99.209 130.87 98.5129 130.076 97.8382ZM125.361 96.5994C124.588 96.6279 123.71 96.7285 122.717 96.9219C119.305 97.5889 117.439 99.1317 115.92 101.01C117.438 99.1347 119.305 97.5924 122.716 96.9236C123.71 96.7291 124.587 96.6279 125.361 96.5994Z" fill="white"/>
<path d="M125.827 96.5906C125.676 96.5906 125.521 96.5936 125.361 96.5995C124.587 96.6287 123.71 96.7292 122.715 96.9238C119.305 97.5926 117.438 99.1348 115.919 101.01C115.21 101.887 114.575 102.837 113.895 103.804C112.872 105.257 111.746 106.751 110.1 108.096C109.114 108.899 108.15 109.548 107.225 110.105C105.36 111.234 103.653 111.993 102.245 112.907C102.468 112.815 106.148 111.286 109.073 109.598C112.086 107.863 113.447 108.289 115.55 106.751C117.654 105.209 116.736 103.842 116.866 103.052C116.992 102.26 118.058 100.424 122.933 97.8805C124.138 97.2516 125.243 97.0148 126.224 97.0154C129.211 97.016 131.044 99.2104 131.044 99.2104C131.044 99.2104 130.871 98.5136 130.077 97.8395C129.331 97.2046 128.038 96.5906 125.827 96.5906Z" fill="#413A9F"/>
<path d="M111.356 271.252C111.356 271.252 111.949 272.085 111.977 272.999C112.001 273.914 111.535 274.587 111.535 274.587C111.535 274.587 103.155 277.273 99.9072 277.384C96.658 277.49 77.0604 272.757 76.7504 271.952C76.4416 271.146 76.7504 270.232 77.9375 269.64C79.1227 269.049 111.356 271.252 111.356 271.252Z" fill="#F6AB1C"/>
<path d="M98.6511 256.915C98.6511 256.915 100.491 257.522 100.44 258.115C100.387 258.707 99.8375 259.226 100.06 259.73C100.284 260.23 109.24 260.23 110.891 262.274C112.542 264.317 111.975 270.821 111.356 271.252C110.736 271.682 102.433 274.639 100.525 274.586C98.6166 274.533 78.8649 270.767 77.9373 269.639C77.0079 268.51 81.0129 257.829 81.5121 257.256C82.0095 256.683 83.2828 256.091 83.2828 256.091L92.5839 253.938C92.5839 253.938 98.2988 256.205 98.6511 256.915Z" fill="#7F60F9"/>
<path d="M100.205 265.686L100.179 265.682L100.136 265.587C100.144 265.566 100.35 265.049 102.004 264.045C103.649 263.042 108.069 262.582 108.257 262.563L108.338 262.629L108.271 262.71C108.226 262.715 103.697 263.186 102.081 264.172C100.491 265.137 100.278 265.634 100.275 265.639L100.205 265.686Z" fill="#591C16"/>
<path d="M98.6603 256.9L98.6508 256.916C98.6508 256.916 100.49 257.523 100.439 258.116C100.387 258.708 99.8372 259.227 100.06 259.731C100.284 260.231 109.24 260.231 110.891 262.275C110.98 262.384 111.062 262.507 111.138 262.64C111.143 262.64 111.146 262.639 111.148 262.639C111.074 262.509 110.997 262.383 110.91 262.275C109.259 260.231 100.302 260.231 100.079 259.731C99.8562 259.227 100.405 258.708 100.457 258.116C100.509 257.523 98.6692 256.916 98.6692 256.916C98.6662 256.911 98.6632 256.906 98.6603 256.9Z" fill="#7F7F7F"/>
<path d="M100.205 265.686L100.179 265.682L100.136 265.588C100.144 265.566 100.35 265.049 102.004 264.045C103.65 263.042 108.069 262.583 108.257 262.563L108.338 262.63L108.272 262.711C108.227 262.716 103.697 263.187 102.081 264.172C100.492 265.137 100.278 265.635 100.276 265.64L100.205 265.686ZM93.4539 255.187C93.3955 255.187 93.3402 255.189 93.2884 255.195C92.6863 255.256 92.3222 255.651 91.8973 256.071C91.9086 256.066 91.9199 256.062 91.9318 256.056C92.5036 255.805 92.9636 255.716 93.3961 255.716C94.0233 255.716 94.5933 255.903 95.3632 256.056C96.6657 256.316 97.7825 257.381 98.0615 259.383C98.2281 260.575 98.722 260.841 99.4866 260.841C100.008 260.841 100.655 260.717 101.41 260.679C101.494 260.675 101.579 260.672 101.663 260.672C103.45 260.672 105.239 261.649 102.34 263.037C99.3021 264.492 99.3943 265.299 98.8053 267.529C98.2692 269.557 98.9136 271.532 99.408 271.532C99.4568 271.532 99.5044 271.512 99.5496 271.472C100.047 271.018 99.4872 268.821 100.123 267.076C100.76 265.331 102.092 264.492 104.253 263.909C106.358 263.342 110.899 262.675 111.138 262.64C111.062 262.507 110.98 262.384 110.892 262.275C109.24 260.231 100.284 260.231 100.06 259.73C99.8376 259.227 100.387 258.708 100.44 258.116C100.49 257.523 98.6512 256.916 98.6512 256.916C98.6512 256.916 94.983 255.187 93.4539 255.187Z" fill="#1A5BB7"/>
<path d="M108.256 262.563C108.069 262.582 103.649 263.042 102.003 264.045C100.349 265.049 100.143 265.566 100.135 265.587L100.178 265.682L100.204 265.686L100.274 265.639C100.276 265.635 100.49 265.137 102.08 264.172C103.696 263.186 108.225 262.716 108.27 262.71L108.337 262.629L108.256 262.563Z" fill="#2C0E0B"/>
<path d="M77.8824 269.55C77.8961 269.585 77.9128 269.615 77.9312 269.642C77.933 269.641 77.9354 269.639 77.9372 269.639C77.9164 269.614 77.8979 269.583 77.8824 269.55Z" fill="white"/>
<path d="M77.9369 269.639C77.9351 269.641 77.9327 269.642 77.9309 269.642C77.9363 269.651 77.9428 269.658 77.9482 269.666C78.8377 270.75 97.037 274.254 100.205 274.586C100.191 274.584 100.092 274.569 99.9049 274.526C96.0332 274.036 78.8026 270.691 77.9369 269.639Z" fill="#FCE630"/>
<path d="M83.3404 256.108L83.2946 256.119C83.2946 256.119 82.0219 256.71 81.5244 257.283C81.0377 257.84 77.2393 267.954 77.8824 269.551C77.8979 269.585 77.9164 269.615 77.9372 269.64C78.8029 270.692 96.0335 274.036 99.9052 274.527C99.309 274.389 97.8197 273.967 95.3433 272.777C92.0226 271.184 87.6684 270.271 84.2275 267.023C80.7872 263.776 83.0649 257.861 85.2509 257.766C87.4346 257.667 88.3652 257.132 88.3652 257.132C88.3652 257.132 88.3449 257.121 88.3062 257.1C86.0774 256.865 83.7355 256.22 83.3404 256.108Z" fill="#1A5BB7"/>
<path d="M178.699 270.085C178.699 270.085 179.091 270.53 179.232 271.272C179.375 272.014 179.518 272.496 178.967 273.091C178.414 273.684 170.657 277.691 166.245 277.875C161.831 278.061 145.322 275.87 144.822 275.427C144.324 274.983 144.502 273.276 145.32 272.906C146.14 272.532 178.699 270.085 178.699 270.085Z" fill="#F6AB1C"/>
<path d="M178.698 270.085C178.698 270.085 179.161 264.817 176.066 262.405C172.971 259.994 167.809 260.885 167.134 260.55C166.458 260.217 166.6 257.101 165.57 256.841C164.537 256.582 161.388 256.656 161.388 256.656L157.135 255.469L146.495 260.829C146.495 260.829 145.711 260.969 145.32 262.985C144.927 265 144.429 272.124 145.32 272.904C146.211 273.683 161.974 275.685 167.134 274.685C172.293 273.683 178.521 271.159 178.698 270.085Z" fill="#7F60F9"/>
<path d="M163.598 266.212L163.552 266.196L163.54 266.091C163.575 266.048 164.43 264.989 166.625 263.882C168.816 262.777 171.6 262.322 171.628 262.318L171.712 262.38L171.651 262.464C171.623 262.469 168.862 262.921 166.692 264.014C164.529 265.106 163.665 266.173 163.656 266.184L163.598 266.212Z" fill="#591C16"/>
<path d="M163.598 266.213L163.552 266.197L163.539 266.092C163.575 266.049 164.43 264.99 166.624 263.883C168.816 262.779 171.6 262.323 171.628 262.319L171.712 262.381L171.65 262.466C171.623 262.47 168.861 262.922 166.691 264.016C164.529 265.107 163.664 266.174 163.656 266.186L163.598 266.213ZM162.39 256.646C162.386 256.646 162.382 256.646 162.378 256.646C161.802 256.646 161.388 256.657 161.388 256.657L160.879 256.66C160.822 256.661 160.761 256.664 160.696 256.667L160.152 256.706C160.152 256.706 160.169 256.705 160.201 256.705C160.599 256.705 163.29 256.751 164.755 257.97C166.337 259.285 165.685 261.266 167.034 261.362C168.382 261.46 170.288 261.556 167.617 262.392C164.948 263.226 162.755 265.048 162.428 267.63C162.118 270.104 162.826 272.576 163.504 272.576C163.535 272.576 163.566 272.57 163.597 272.56C164.3 272.317 163.358 271.01 163.871 268.683C164.382 266.356 164.986 265.483 169.683 263.642C171.519 262.922 173.023 262.702 174.175 262.702C175.847 262.702 176.775 263.165 176.895 263.228C176.649 262.931 176.38 262.651 176.065 262.405C172.97 259.994 167.808 260.885 167.133 260.55C166.456 260.216 166.599 257.101 165.569 256.841C165.559 256.839 165.548 256.836 165.537 256.833C165.518 256.829 165.498 256.824 165.477 256.82C164.901 256.699 163.825 256.66 162.923 256.649C162.737 256.648 162.557 256.646 162.39 256.646Z" fill="#1A5BB7"/>
<path d="M171.628 262.318C171.6 262.322 168.816 262.777 166.625 263.882C164.43 264.989 163.575 266.048 163.54 266.091L163.552 266.196L163.598 266.212L163.657 266.184C163.665 266.173 164.53 265.106 166.692 264.014C168.863 262.921 171.624 262.469 171.651 262.464L171.713 262.38L171.628 262.318Z" fill="#2C0E0B"/>
<path d="M146.485 260.807C146.392 260.832 145.685 261.079 145.32 262.961C145.089 264.15 144.821 267.117 144.823 269.51C144.823 267.121 145.09 264.17 145.32 262.985C145.712 260.969 146.496 260.829 146.496 260.829L146.485 260.807Z" fill="#7F7F7F"/>
<path d="M146.496 260.828C146.496 260.828 145.712 260.968 145.32 262.985C145.09 264.169 144.823 267.12 144.823 269.509C144.824 271.173 144.955 272.559 145.32 272.878C145.866 273.355 151.992 274.29 157.845 274.715C157.694 274.7 156.652 274.579 154.308 273.868C151.763 273.098 150.464 271.356 148.853 269.804C147.273 268.287 147.983 264.724 150.427 264.724C150.48 264.724 150.534 264.726 150.588 264.73C150.733 264.739 150.883 264.743 151.038 264.743C153.626 264.743 157.406 263.536 157.406 263.536C158.68 262.998 157.596 261.473 157.546 261.404C157.543 261.638 157.499 261.84 157.385 261.998C157.002 262.523 154.567 262.816 152.333 262.816C151.253 262.816 150.222 262.747 149.49 262.604C147.242 262.164 146.496 260.828 146.496 260.828Z" fill="#1A5BB7"/>
<path d="M157.009 248.24L161.388 256.654C161.388 256.654 157.97 256.542 157.384 257.933C156.796 259.325 157.952 261.217 157.384 261.996C156.816 262.775 151.735 263.042 149.489 262.603C147.242 262.162 146.495 260.828 146.495 260.828L142.334 252.223L157.009 248.24ZM87.1029 246.811L83.2819 256.089C83.2819 256.089 86.4788 257.02 89.1265 257.165C91.7737 257.309 91.8772 255.336 93.2874 255.193C94.6963 255.05 98.6507 256.914 98.6507 256.914L100.204 254.17L87.1029 246.811Z" fill="#F3BA95"/>
<path d="M143.648 254.942L144.322 256.334H144.322L143.649 254.942H143.648Z" fill="#7F7F7F"/>
<path d="M158.436 250.982C157.284 251.943 155.641 252.955 153.317 253.781C150.713 254.706 147.774 254.978 145.184 254.978C145.096 254.978 145.008 254.977 144.921 254.976C144.485 254.972 144.06 254.96 143.648 254.943L144.322 256.335C144.349 256.338 145.606 256.517 147.36 256.517C148.918 256.517 150.868 256.376 152.695 255.847C156.601 254.716 158.579 251.259 158.579 251.259L158.436 250.982Z" fill="#ED9760"/>
<path d="M100.073 254.404L99.6204 255.203H99.621L100.076 254.404C100.074 254.404 100.073 254.404 100.073 254.404ZM86.3293 248.688L85.5427 250.599L85.5433 250.6L86.3299 248.689L86.3293 248.688Z" fill="#7F7F7F"/>
<path d="M86.3302 248.688L85.5436 250.599C85.5662 250.642 86.3546 252.116 90.3857 253.549C94.4448 254.992 99.5415 255.199 99.6207 255.203L100.073 254.403C98.3527 254.129 96.184 253.729 94.1538 253.203C92.0481 252.658 90.0941 251.977 88.9387 251.155C87.973 250.469 87.0953 249.595 86.3302 248.688Z" fill="#ED9760"/>
<path d="M145.119 217.07C140.763 218.854 136.244 217.186 133.153 215.414C130.884 214.114 129.38 212.76 129.297 212.679L129.292 212.673L124.696 191.101L117.948 211.251L117.236 213.367C117.236 213.367 111.912 218.923 103.33 217.836C97.2176 217.065 95.0292 211.527 94.2771 208.4C93.9701 207.137 93.9028 206.271 93.9028 206.271L94.0932 205.591L94.1468 205.401L94.7025 203.421L106.429 161.667L140.78 162.402L150.806 206.579L150.821 206.621L150.992 207.389C150.992 207.389 152.775 213.936 145.119 217.07Z" fill="white"/>
<path d="M142.47 168.856C142.398 168.872 142.327 168.887 142.257 168.903L148.516 196.48L142.47 168.856Z" fill="#7F7F7F"/>
<path d="M105.213 165.997C105.308 166.047 121.421 174.489 137.426 174.489C137.53 174.489 137.634 174.489 137.738 174.488L148.514 196.48L142.255 168.903C139.972 169.398 137.654 169.714 135.319 169.905L134.853 169.739C134.853 169.739 133.28 170.275 121.198 170.434C121.052 170.436 120.908 170.437 120.765 170.437C113.385 170.437 109.214 167.904 107.134 166.022L105.213 165.997Z" fill="#C0C0C0"/>
<path d="M117.948 211.25V211.264L103.343 254.859C103.343 254.859 98.4411 254.315 94.1536 253.204C92.0479 252.658 90.0939 251.978 88.9384 251.156C85.4225 248.661 83.0776 243.664 83.0776 243.664L94.0929 205.591L94.1464 205.401C94.1464 205.401 94.5147 205.131 95.1996 204.738C97.175 203.623 101.79 201.544 107.603 202.385C115.219 203.475 117.818 210.883 117.948 211.25ZM160.996 247.679C160.996 247.679 159.839 251.462 153.317 253.781C150.624 254.737 147.574 254.995 144.921 254.976C141.147 254.94 138.179 254.327 138.179 254.327L129.297 212.679L128.928 210.95C128.928 210.95 129.577 210.148 131.239 209.019C132.785 207.963 135.225 206.627 138.842 205.383C146.349 202.815 150.806 206.579 150.806 206.579L150.821 206.621L160.996 247.679Z" fill="white"/>
<path d="M105.742 247.871H105.738C105.684 247.869 100.193 247.587 94.2024 243.723C88.2072 239.856 85.7546 234.875 85.7302 234.826L85.7647 234.727L85.8641 234.761C85.8879 234.811 88.3244 239.755 94.2828 243.598C100.238 247.44 105.69 247.72 105.745 247.723L105.816 247.801L105.742 247.871ZM142.459 247.563C138.674 247.563 136.587 246.602 136.556 246.588L136.52 246.488L136.619 246.453C136.666 246.474 141.312 248.611 149.37 246.448C155.815 244.72 158.865 242.181 159.579 241.079L159.682 241.058L159.704 241.159C159.683 241.192 157.527 244.415 149.409 246.592C146.694 247.321 144.362 247.563 142.459 247.563Z" fill="#591C16"/>
<path d="M128.928 182.61L124.697 191.102L129.292 212.674L129.298 212.68L128.928 210.951C128.928 210.951 129.578 210.149 131.24 209.02L127.582 196.812L128.928 182.61Z" fill="#C0C0C0"/>
<path d="M131.24 209.018C129.578 210.147 128.928 210.949 128.928 210.949L129.298 212.678L138.18 254.326C138.18 254.326 141.148 254.939 144.921 254.975L144.962 254.859L142.777 247.561C142.67 247.563 142.564 247.563 142.459 247.563C138.674 247.563 136.587 246.602 136.556 246.588L136.52 246.488L136.62 246.453C136.651 246.467 138.713 247.415 142.457 247.415C142.548 247.415 142.64 247.415 142.733 247.414L133.153 215.413L131.24 209.018Z" fill="#C0C0C0"/>
<path d="M136.619 246.453L136.52 246.488L136.555 246.588C136.586 246.602 138.674 247.564 142.458 247.564C142.563 247.564 142.669 247.563 142.777 247.561L142.733 247.413C142.64 247.414 142.547 247.415 142.456 247.415C138.713 247.416 136.651 246.468 136.619 246.453Z" fill="#2C0E0B"/>
<path d="M99.358 186.844C99.1842 187.438 99.0057 188.08 98.8207 188.76L99.3473 186.885C99.3508 186.871 99.3544 186.857 99.358 186.844Z" fill="white"/>
<path d="M99.3467 186.885L98.8201 188.76C97.6343 193.12 96.2223 199.016 94.7033 203.419L94.1476 205.399C94.1476 205.399 94.5159 205.129 95.2007 204.737C97.166 197.041 98.9183 188.512 99.3467 186.885Z" fill="#BCBBB7"/>
<path d="M95.1996 204.737C94.5153 205.13 94.1464 205.4 94.1464 205.4L94.0929 205.59L83.0776 243.663C83.0776 243.663 85.4225 248.66 88.9384 251.155C90.0939 251.977 92.0479 252.658 94.1536 253.203C94.4421 253.215 94.6736 253.246 94.8384 253.313C94.8063 253.275 89.8565 246.642 88.8081 239.126C86.6839 236.762 85.745 234.855 85.7302 234.825L85.7647 234.726L85.864 234.76C85.8783 234.79 86.7672 236.594 88.773 238.864C88.6605 237.976 88.6028 237.077 88.6159 236.177C88.6849 231.847 91.3916 219.963 94.0851 209.165C94.147 208.908 94.2154 208.657 94.2767 208.399C94.5915 207.155 94.8985 205.934 95.1996 204.737Z" fill="#BCBBB7"/>
<path d="M85.7656 234.727L85.7311 234.826C85.746 234.856 86.6849 236.762 88.809 239.127C88.7965 239.04 88.7852 238.953 88.7739 238.865C86.7682 236.595 85.8792 234.791 85.8649 234.761L85.7656 234.727Z" fill="#973025"/>
<path d="M131.499 122.097C131.499 122.097 137.436 122.166 140.814 127.59C144.193 133.014 147.24 138.802 149.332 140.421C151.423 142.039 152.226 142.528 152.226 142.528L145.257 155.904C145.257 155.904 137.835 151.802 134.817 143.261C131.8 134.721 131.499 122.097 131.499 122.097Z" fill="#7F60F9"/>
<path d="M170.863 149.746C170.863 149.746 155.953 145.113 152.642 142.767C149.33 140.422 141.8 145.961 142.922 148.538C144.041 151.114 145.256 155.905 145.256 155.905L161.167 163.706L166.648 165.3L170.863 149.746ZM135.32 169.905C137.763 169.705 140.189 169.368 142.573 168.832C142.612 167.512 142.631 166.192 142.542 164.877C142.282 160.993 142 157.082 141.961 153.189C141.924 149.503 142.039 145.783 141.343 142.144C140.993 140.307 140.542 138.48 140.44 136.605C140.346 134.876 140.471 133.143 139.988 131.459C139.278 128.982 138.214 126.623 136.829 124.462C136.675 124.331 136.527 124.189 136.368 124.073C131.848 120.764 117.134 119.997 117.134 119.997C117.134 119.997 112.457 120.147 108.872 121.125C107.57 123.202 108.472 124.882 107.799 127.233C107.086 129.73 106.619 132.289 106.224 134.853C105.821 137.465 105.351 140.108 105.106 142.741C104.823 145.757 105.207 148.805 105.251 151.824C105.277 153.615 105.655 155.459 105.694 157.274L105.722 157.322L105.691 157.989C105.688 158.078 105.683 158.168 105.678 158.257L105.611 159.699L105.612 159.712L105.405 164.026C105.405 164.026 109.112 170.595 121.199 170.434C133.281 170.275 134.853 169.74 134.853 169.74L135.32 169.905Z" fill="#7F60F9"/>
<path d="M142.587 168.327C142.587 168.329 142.587 168.331 142.587 168.333V168.327ZM105.691 158.005L105.681 158.224C105.685 158.15 105.688 158.077 105.691 158.005Z" fill="#7F7F7F"/>
<path d="M105.313 151.986C105.625 153.055 105.723 157.322 105.723 157.322L105.691 158.004C105.688 158.077 105.685 158.15 105.681 158.223L105.611 159.698L105.612 159.711C105.612 159.711 106.291 168.624 133.518 168.624C136.262 168.624 139.277 168.533 142.587 168.334C142.587 168.332 142.587 168.33 142.587 168.328L142.434 163.264C138.455 163.106 134.463 162.949 131.026 162.814L128.936 162.733C127.919 162.693 126.974 162.656 126.115 162.623L123.764 162.533C123.469 162.522 123.195 162.512 122.946 162.502C118.917 162.352 116.35 161.669 114.794 161.027C114.681 160.985 114.571 160.939 114.466 160.89C114.416 160.867 114.366 160.843 114.316 160.818C113.789 160.572 113.41 160.341 113.153 160.162L113.151 160.161C112.895 159.983 112.76 159.855 112.719 159.815C110.513 158.185 107.799 155.328 105.313 151.986Z" fill="#1A5BB7"/>
<path d="M196.987 162.009L163.373 161.649L171.192 139.002L204.807 139.362L196.987 162.009Z" fill="#93DCFD"/>
<path d="M168.402 161.702L146.279 161.464L146.31 158.6L168.432 158.837L168.402 161.702Z" fill="#93DCFD"/>
<path d="M138.65 146.038C139.078 146.083 139.52 146.129 139.972 146.176L138.65 146.038ZM139.191 139.895C138.788 143.265 138.472 144.646 138.415 144.877L138.567 145.628L138.868 143.981C139.032 142.871 139.188 141.416 139.191 139.895ZM134.39 130.584C134.387 130.589 134.384 130.594 134.38 130.598L134.361 130.607C135.364 131.768 137.242 134.971 137.514 138.139C137.766 141.044 137.518 142.271 137.041 143.442C137.041 143.442 131.966 143.361 131.884 143.351C128.126 142.697 126.548 142.382 123.663 140.358C120.651 138.247 120.009 137.614 116.652 133.291L114.672 131.209C114.698 131.268 114.723 131.326 114.748 131.384C115.047 132.056 116.204 134.561 118.002 137.234C120.144 140.292 122.571 142.659 124.395 143.722C124.556 143.812 124.717 143.899 124.88 143.981C124.88 143.981 129.219 144.906 131.592 145.26C132.213 145.353 134.825 145.637 138.341 146.005L138.118 144.903L138.119 144.836C138.123 144.821 138.508 143.3 138.979 139.146C139.445 135.051 135.322 131.298 135.28 131.26C135.267 131.248 135.255 131.233 135.248 131.217C134.926 130.96 134.632 130.748 134.39 130.584Z" fill="#1A5BB7"/>
<path d="M140.217 154.698C140.146 154.698 140.085 154.649 140.07 154.579L138.117 144.904L138.118 144.837C138.122 144.822 138.507 143.301 138.978 139.147C139.444 135.052 135.321 131.299 135.279 131.261C135.219 131.206 135.213 131.112 135.268 131.051C135.323 130.989 135.417 130.985 135.478 131.04C135.652 131.197 139.757 134.935 139.273 139.181C138.832 143.072 138.475 144.631 138.414 144.878L140.361 154.519C140.378 154.6 140.326 154.678 140.245 154.695L140.217 154.698Z" fill="#591C16"/>
<path d="M133.777 130.001C133.734 130.001 133.693 130.011 133.655 130.03C133.605 130.054 133.574 130.104 133.571 130.159C133.571 130.215 133.599 130.267 133.648 130.293C133.65 130.295 133.86 130.412 134.185 130.626L134.266 130.65L134.36 130.608C134.328 130.57 134.297 130.535 134.266 130.502C134.306 130.528 134.347 130.556 134.39 130.585C134.428 130.528 134.423 130.452 134.376 130.401C134.125 130.13 133.934 130.001 133.777 130.001Z" fill="#216ACC"/>
<path d="M134.267 130.5C134.297 130.533 134.329 130.568 134.361 130.605L134.38 130.596C134.383 130.592 134.387 130.587 134.39 130.582C134.348 130.554 134.307 130.526 134.267 130.5Z" fill="#1039B3"/>
<path d="M104.388 123.42C104.388 123.42 96.7017 129.59 98.4207 138.228C100.14 146.866 109.683 158.656 114.467 160.888C119.25 163.121 132.244 158.259 131.371 152.432C130.498 146.605 127.61 145.291 124.88 143.98C122.149 142.669 117.672 137.881 115.074 132.119C112.477 126.357 111.012 120.838 109.814 120.902C108.615 120.966 104.388 123.42 104.388 123.42Z" fill="#7F60F9"/>
<path d="M115.524 120.086C115.274 120.103 115.029 120.125 114.79 120.153C114.788 120.154 114.785 120.154 114.782 120.154C115.045 120.13 115.294 120.11 115.523 120.092L115.524 120.086Z" fill="#F67E53"/>
<path d="M115.523 120.09C115.294 120.107 115.045 120.128 114.782 120.152C113.241 120.334 111.618 120.49 109.946 120.917C110.312 121.017 110.705 121.604 111.147 122.531C112.806 122.21 114.595 122 116.259 121.864C115.727 120.956 115.497 120.22 115.497 120.22L115.523 120.09Z" fill="#582EFF"/>
<path d="M141.977 129.415C141.969 129.428 141.961 129.44 141.953 129.452C142.308 130.039 142.658 130.623 143.002 131.2C143.003 131.201 143.004 131.202 143.004 131.202C143.004 131.202 142.566 130.405 141.977 129.415Z" fill="white"/>
<path d="M141.972 129.406C141.964 129.419 141.956 129.431 141.948 129.443C141.95 129.446 141.952 129.449 141.954 129.452C141.962 129.439 141.969 129.427 141.977 129.415C141.975 129.412 141.973 129.409 141.972 129.406ZM139.579 125.946C139.83 126.226 140.075 126.526 140.31 126.847C140.314 126.846 140.318 126.845 140.322 126.844C140.049 126.469 139.795 126.154 139.579 125.946ZM134.269 122.603C135.066 122.847 135.968 123.21 136.884 123.749C136.14 123.29 135.279 122.882 134.269 122.603Z" fill="#F67E53"/>
<path d="M140.322 126.845C140.318 126.846 140.314 126.847 140.311 126.848C140.484 127.083 140.651 127.331 140.813 127.591C141.196 128.206 141.575 128.825 141.949 129.444C141.956 129.431 141.964 129.419 141.972 129.407C141.472 128.566 140.862 127.588 140.322 126.845ZM127.688 121.205C127.685 121.208 127.682 121.211 127.679 121.214C129.063 121.463 130.441 121.759 131.711 122.108C131.977 122.126 132.477 122.175 133.125 122.31C131.579 121.937 129.579 121.534 127.688 121.205Z" fill="#F13F29"/>
<path d="M131.711 122.108C133.62 122.633 135.286 123.279 136.369 124.072C136.528 124.188 136.676 124.33 136.83 124.461C137.028 124.77 137.219 125.082 137.404 125.399C140.058 127.431 142.937 131.115 143.004 131.2C142.659 130.623 142.309 130.038 141.955 129.452C141.953 129.45 141.951 129.446 141.949 129.444C141.576 128.826 141.197 128.206 140.813 127.591C140.652 127.331 140.484 127.084 140.311 126.848C140.076 126.527 139.831 126.226 139.58 125.947C138.888 125.279 138.025 124.454 136.885 123.749C135.968 123.211 135.066 122.848 134.27 122.603C134.269 122.603 134.268 122.603 134.267 122.603C133.927 122.509 133.543 122.411 133.126 122.31C132.477 122.174 131.977 122.126 131.711 122.108Z" fill="#582EFF"/>
<path d="M127.679 121.213C127.662 121.231 127.647 121.248 127.632 121.265C127.492 121.484 127.315 121.904 127.128 122.405C130.437 122.952 133.782 123.688 135.379 124.222C135.999 124.429 136.693 124.855 137.403 125.399C137.218 125.082 137.027 124.77 136.83 124.461C136.676 124.33 136.527 124.188 136.368 124.072C135.286 123.279 133.619 122.632 131.71 122.108C130.441 121.758 129.063 121.463 127.679 121.213Z" fill="#582EFF"/>
<path d="M107.574 121.726C107.09 121.937 106.605 122.181 106.118 122.464C106.118 122.464 106.116 122.465 106.115 122.466C106.575 122.222 107.08 121.962 107.574 121.726Z" fill="#F13F29"/>
<path d="M101.937 125.892C101.238 126.73 100.656 127.635 100.126 128.633C100.711 127.589 101.359 126.679 101.97 125.923C101.959 125.913 101.948 125.902 101.937 125.892Z" fill="white"/>
<path d="M102.864 124.888C102.531 125.213 102.223 125.547 101.935 125.892C101.947 125.902 101.957 125.913 101.968 125.923C102.281 125.536 102.585 125.19 102.864 124.888Z" fill="#F13F29"/>
<path d="M99.1333 130.727C98.7072 131.773 98.6138 132.305 98.6067 132.35C98.7531 131.788 98.931 131.246 99.1333 130.727Z" fill="white"/>
<path d="M109.946 120.917C109.165 121.117 108.373 121.376 107.575 121.725C107.081 121.962 106.575 122.222 106.116 122.466C104.801 123.231 103.747 124.026 102.865 124.888C102.585 125.19 102.283 125.536 101.97 125.923C101.359 126.679 100.711 127.589 100.126 128.633C100.125 128.636 100.123 128.641 100.12 128.644C99.6753 129.483 99.3588 130.176 99.1339 130.727C98.9321 131.247 98.7536 131.788 98.6073 132.35C98.6073 132.352 98.6067 132.353 98.6067 132.353C98.6067 132.353 103.71 125.387 106.911 123.815C108.04 123.261 109.532 122.844 111.148 122.532C110.705 121.604 110.312 121.019 109.946 120.917Z" fill="#582EFF"/>
<path d="M141.688 144.489C141.755 145.112 141.804 145.736 141.841 146.362L143.307 146.511C143.617 146.012 144.054 145.499 144.578 145.01L141.688 144.489Z" fill="#1A5BB7"/>
<path d="M144.58 145.011C144.055 145.5 143.617 146.013 143.309 146.512L165.361 148.757C165.363 148.758 165.365 148.758 165.365 148.758L144.58 145.011ZM138.869 143.982C138.759 144.723 138.646 145.311 138.574 145.662L138.65 146.039L141.841 146.364C141.804 145.738 141.756 145.114 141.689 144.491L138.869 143.982Z" fill="#1A5BB7"/>
<path d="M138.867 143.982L138.567 145.629L138.573 145.662C138.646 145.311 138.759 144.723 138.868 143.982H138.867Z" fill="#0A2FAE"/>
<path d="M138.567 145.626L138.495 146.021L138.649 146.036L138.573 145.66L138.567 145.626Z" fill="#2C0E0B"/>
<path d="M204.807 139.362L180.848 154.064C180.928 154.197 181.003 154.351 181.064 154.528C181.334 155.318 180.754 156.347 180.754 156.347C180.754 156.347 181.319 157.007 181.074 157.914C180.831 158.82 179.584 159.916 179.584 159.916C179.584 159.916 180.024 160.928 179.532 161.821L196.987 162.008L204.807 139.362Z" fill="#5DCAFC"/>
<path d="M161.418 151.937C161.418 151.937 165.541 152.141 166.805 152.005C168.069 151.868 168.912 148.628 169.621 147.913C170.328 147.199 171.939 147.811 172.253 148.225C172.566 148.639 170.822 151.998 171.696 153.094C172.57 154.191 175.523 153.54 176.672 153.014C177.823 152.488 178.594 151.265 179.318 151.388C180.042 151.511 180.361 152.287 180.367 152.649C180.373 153.011 180.241 153.395 180.241 153.395C180.241 153.395 180.791 153.737 181.064 154.527C181.334 155.317 180.754 156.347 180.754 156.347C180.754 156.347 181.319 157.007 181.074 157.914C180.831 158.82 179.584 159.916 179.584 159.916C179.584 159.916 180.22 161.378 179.107 162.339C177.993 163.301 173.814 164.396 171.478 164.201C169.143 164.007 166.218 162.145 165.758 161.797C165.299 161.448 160.591 162.249 160.591 162.249L161.418 151.937Z" fill="#F4BB96"/>
<path d="M174.332 156.816C174.272 156.816 174.239 156.813 174.232 156.813C174.15 156.805 174.092 156.732 174.1 156.65C174.107 156.569 174.181 156.51 174.261 156.517C174.274 156.518 175.273 156.597 177.207 155.56C179.163 154.509 180.113 153.316 180.122 153.304C180.172 153.239 180.265 153.228 180.331 153.279C180.395 153.33 180.407 153.423 180.357 153.488C180.317 153.539 179.364 154.739 177.348 155.822C175.648 156.734 174.64 156.816 174.332 156.816ZM176.119 159.586L176.053 159.581C175.972 159.568 175.917 159.491 175.932 159.409C175.945 159.329 176.017 159.274 176.103 159.287C176.099 159.285 176.572 159.329 178.025 158.606C179.523 157.859 180.62 156.28 180.631 156.264C180.678 156.196 180.771 156.179 180.838 156.226C180.905 156.272 180.923 156.365 180.876 156.433C180.83 156.5 179.726 158.09 178.158 158.872C176.865 159.517 176.301 159.586 176.119 159.586ZM176.737 161.816C176.679 161.816 176.624 161.782 176.6 161.726C176.568 161.651 176.603 161.563 176.678 161.531C178.481 160.759 179.47 159.82 179.48 159.81C179.539 159.753 179.633 159.755 179.691 159.815C179.748 159.874 179.746 159.968 179.686 160.025C179.645 160.065 178.648 161.011 176.796 161.805L176.737 161.816Z" fill="#591C16"/>
<path d="M163.076 164.086L165.365 148.758C165.365 148.758 133.966 145.616 131.592 145.262C129.219 144.908 124.88 143.982 124.88 143.982C124.88 143.982 120.427 145.951 117.926 150.745C115.427 155.54 112.707 159.8 112.707 159.8C112.707 159.8 114.941 162.203 122.947 162.502C130.954 162.801 163.076 164.086 163.076 164.086Z" fill="#7F60F9"/>
<path d="M165.011 161.711C164.574 161.721 164 161.773 163.411 161.842L165.011 161.711Z" fill="#1A5BB7"/>
<path d="M164.872 152.05L164.654 153.511L163.41 161.844C163.999 161.774 164.573 161.722 165.01 161.712L165.563 161.667L164.872 152.05Z" fill="#EE9961"/>
<path d="M164.873 152.048L164.654 153.51L164.873 152.048V152.048Z" fill="#1A5BB7"/>
<path d="M163.076 164.234L163.054 164.233C162.973 164.221 162.917 164.145 162.929 164.064L165.218 148.736C165.23 148.655 165.299 148.598 165.387 148.611C165.469 148.623 165.524 148.698 165.512 148.78L163.223 164.108C163.213 164.182 163.149 164.234 163.076 164.234Z" fill="#591C16"/>
<path d="M134.722 110.099C134.722 110.099 134.364 116.233 132.033 118.116C129.701 120.002 128.168 120.425 127.632 121.265C127.1 122.1 126.003 125.881 126.003 125.881C126.003 125.881 122.545 126.007 119.576 124.886C116.606 123.767 115.496 120.22 115.496 120.22L116.133 117.083C116.133 117.083 113.402 116.707 112.787 113.462C112.179 110.21 115.157 108.951 117.133 109.673C119.105 110.397 119.038 112.311 119.038 112.311C119.038 112.311 119.989 113.631 121.614 113.072C123.238 112.516 122.891 110.324 122.891 110.324C122.891 110.324 125.719 110.957 128.043 109.037C130.365 107.115 130.361 105.051 130.361 105.051C130.361 105.051 130.493 107.722 131.997 108.655C133.505 109.589 134.722 110.099 134.722 110.099Z" fill="#F3BA95"/>
<path d="M115.414 115.357C115.329 115.357 115.255 115.294 115.244 115.207C115.232 115.113 115.297 115.026 115.391 115.014C115.404 115.012 116.598 114.837 117.109 113.834C117.63 112.807 117.328 111.603 117.324 111.59C117.3 111.498 117.356 111.405 117.448 111.38C117.542 111.355 117.634 111.412 117.658 111.503C117.672 111.557 117.998 112.844 117.416 113.99C116.823 115.158 115.494 115.348 115.437 115.355L115.414 115.357Z" fill="#591C16"/>
<path d="M117.073 114.381C116.982 114.381 116.905 114.309 116.901 114.216C116.9 114.188 116.853 113.492 116.078 112.89C115.304 112.287 114.405 112.506 114.397 112.509C114.304 112.53 114.211 112.477 114.187 112.385C114.164 112.293 114.219 112.199 114.311 112.176C114.353 112.164 115.378 111.911 116.29 112.619C117.195 113.323 117.243 114.166 117.245 114.202C117.249 114.297 117.176 114.377 117.08 114.381L117.073 114.381Z" fill="#591C16"/>
<path d="M128.792 120.308C128.792 120.308 128.789 120.309 128.784 120.311C128.275 120.624 127.901 120.885 127.675 121.201C127.679 121.202 127.684 121.203 127.688 121.204C128.035 120.843 128.792 120.308 128.792 120.308Z" fill="#DC160E"/>
<path d="M127.676 121.203C127.673 121.206 127.671 121.21 127.668 121.213C127.672 121.214 127.676 121.215 127.68 121.215C127.683 121.212 127.687 121.208 127.69 121.205C127.685 121.205 127.68 121.203 127.676 121.203Z" fill="#EA1F14"/>
<path d="M127.668 121.213C127.656 121.231 127.644 121.249 127.632 121.267C127.646 121.25 127.663 121.233 127.679 121.215C127.676 121.215 127.672 121.214 127.668 121.213Z" fill="#1C9FDE"/>
<path d="M121.567 119.365C121.567 119.365 123.265 121.566 124.523 122.271C125.488 122.809 126.408 122.871 126.784 122.871C126.897 122.871 126.961 122.865 126.961 122.865C126.961 122.865 127.322 121.621 127.632 121.266C127.643 121.248 127.655 121.23 127.668 121.212C127.67 121.208 127.673 121.205 127.675 121.202C127.901 120.886 128.275 120.625 128.783 120.311C128.686 120.342 127.675 120.646 125.918 120.646C125.827 120.646 125.733 120.646 125.639 120.644C123.614 120.606 121.567 119.365 121.567 119.365Z" fill="#ED9760"/>
<path d="M128.746 117.755L124.37 116.019C124.37 116.019 124.626 117.911 126.054 118.482C127.482 119.052 128.746 117.755 128.746 117.755ZM128.957 116.107C128.35 116.107 127.724 115.715 127.687 115.692C127.606 115.642 127.582 115.535 127.633 115.455C127.684 115.375 127.79 115.351 127.87 115.401C128.159 115.584 128.999 115.977 129.41 115.61C129.8 115.262 129.762 113.039 129.647 111.719C129.638 111.624 129.709 111.54 129.803 111.533C129.906 111.525 129.982 111.595 129.99 111.689C130.042 112.288 130.272 115.304 129.639 115.867C129.443 116.043 129.202 116.107 128.957 116.107ZM133.532 111.381C133.46 111.381 133.394 111.336 133.369 111.266C133.366 111.257 133.073 110.435 132.442 110.127C131.792 109.805 131.397 109.822 131.388 109.822H131.379C131.289 109.822 131.212 109.751 131.207 109.659C131.202 109.565 131.273 109.484 131.368 109.478C131.391 109.476 131.851 109.451 132.594 109.817C133.354 110.188 133.682 111.113 133.695 111.152C133.726 111.242 133.679 111.339 133.589 111.371L133.532 111.381ZM128.509 109.552L128.419 109.526C128.412 109.522 127.708 109.093 126.755 109.21C125.785 109.324 125.457 109.459 125.454 109.46C125.367 109.498 125.265 109.457 125.228 109.371C125.191 109.284 125.23 109.183 125.316 109.145C125.33 109.138 125.677 108.99 126.714 108.869C127.784 108.736 128.567 109.214 128.601 109.234C128.681 109.284 128.706 109.39 128.656 109.471C128.623 109.523 128.567 109.552 128.509 109.552ZM126.298 111.031C126.194 111.392 126.284 111.734 126.496 111.798C126.707 111.857 126.961 111.62 127.061 111.26C127.166 110.902 127.076 110.561 126.863 110.497C126.653 110.435 126.398 110.673 126.298 111.031ZM131.782 112.273C131.683 112.628 131.772 112.973 131.986 113.034C132.196 113.099 132.45 112.857 132.552 112.502C132.655 112.138 132.565 111.798 132.354 111.735C132.141 111.673 131.887 111.914 131.782 112.273Z" fill="#591C16"/>
<path d="M187.993 151.868C187.242 152.749 186.013 152.934 185.246 152.28C184.479 151.627 184.465 150.384 185.216 149.502C185.965 148.622 187.196 148.436 187.962 149.089C188.73 149.743 188.743 150.986 187.993 151.868Z" fill="#2894DB"/>
</svg>
