<svg width="420" height="420" viewBox="0 0 420 420" fill="none" xmlns="http://www.w3.org/2000/svg">
<path d="M204.513 171.373C204.513 171.373 206.61 168.929 211.692 172.776C216.773 176.621 214.788 180.828 217.107 185.84C219.425 190.852 222.852 192.554 222.262 196.691C221.673 200.83 216.712 203.188 210.074 203.009C203.436 202.829 189.07 200.355 185.689 192.662C182.308 184.969 190.628 180.014 192.777 176.164C194.926 172.315 196.901 164.692 204.513 171.373Z" fill="#292466"/>
<path d="M195.687 176.891C195.687 176.891 195.883 177.592 196.298 178.044C196.711 178.496 196.648 179.044 196.562 179.635C196.474 180.225 194.151 182.533 194.089 183.802C194.028 185.072 194.736 185.863 193.82 187.173C193.072 188.242 191.822 189.815 190.03 189.815C189.625 189.815 189.192 189.734 188.731 189.549C186.256 188.558 185.485 186.086 185.468 186.033C184.732 187.993 184.606 190.182 185.693 192.655C185.826 192.959 186.92 194.619 187.089 194.907C188.246 194.288 192.187 193.033 194.932 193.033C195.089 193.033 195.243 193.037 195.393 193.045C195.684 193.062 195.961 193.07 196.22 193.07C196.242 193.07 196.263 193.07 196.286 193.07C197.292 192.27 197.945 191.998 197.945 191.998L198.541 191.85C198.674 190.943 198.795 189.951 198.755 189.532C198.755 189.531 198.754 189.529 198.754 189.528C198.675 189.218 198.398 188.66 198.288 188.444C197.883 187.771 197.266 186.876 196.623 185.443C195.578 183.111 197.61 178.312 197.61 178.312C197.61 178.312 197.616 178.313 197.628 178.314L197.616 178.301C197.616 178.301 197.14 178.114 196.587 177.74C196.034 177.367 195.687 176.891 195.687 176.891Z" fill="#413A9F"/>
<path d="M216.316 202.295C215.932 202.408 215.535 202.507 215.123 202.594C215.148 202.779 215.167 202.967 215.179 203.157L216.316 202.295Z" fill="#7F7F7F"/>
<path d="M217.31 200.853L217.271 200.881L215.106 202.474C215.112 202.515 215.118 202.554 215.123 202.595C215.534 202.508 215.932 202.408 216.316 202.296L216.316 202.295C216.318 202.294 217.117 201.766 217.31 200.853Z" fill="#B4A2FF"/>
<path d="M195.79 170.7C195.784 170.707 195.778 170.714 195.773 170.721C195.778 170.714 195.784 170.707 195.79 170.7ZM195.815 170.667C195.809 170.676 195.802 170.684 195.795 170.693C195.802 170.685 195.809 170.676 195.815 170.667ZM199.247 168.728C199.367 168.728 199.488 168.733 199.612 168.745C199.488 168.733 199.366 168.728 199.247 168.728Z" fill="white"/>
<path d="M199.247 168.728C197.818 168.728 196.733 169.515 195.842 170.632L195.84 170.635C195.833 170.644 195.825 170.653 195.818 170.663C195.818 170.664 195.816 170.665 195.815 170.667C195.809 170.676 195.802 170.684 195.795 170.693C195.794 170.695 195.792 170.698 195.79 170.7C195.784 170.707 195.778 170.714 195.773 170.721C195.631 170.904 195.495 171.094 195.363 171.292C195.413 171.234 197.108 169.305 199.288 169.305C199.486 169.305 199.687 169.321 199.892 169.356C202.389 169.778 204.511 171.372 204.511 171.372C202.53 169.634 200.931 168.864 199.612 168.745C199.487 168.733 199.366 168.728 199.247 168.728Z" fill="#413A9F"/>
<path d="M206.637 170.606C205.188 170.606 204.529 171.35 204.511 171.371C204.511 171.371 204.513 171.37 204.515 171.369C204.562 171.317 205.223 170.607 206.637 170.607C207.794 170.607 209.453 171.081 211.691 172.775C212.008 173.015 212.298 173.257 212.563 173.5C212.297 173.256 212.007 173.014 211.689 172.773C209.453 171.08 207.794 170.606 206.637 170.606Z" fill="white"/>
<path d="M206.638 170.607C205.224 170.607 204.563 171.316 204.516 171.369C204.587 171.339 205.445 170.99 206.615 170.99C207.963 170.99 209.724 171.454 211.169 173.408C213.922 177.131 214.046 178.902 213.847 179.541C213.649 180.18 212.443 180.859 213.466 182.796C213.984 183.778 214.546 184.311 215.188 184.914C215.584 184.613 215.992 184.301 216.412 183.982C215.264 180.074 216.006 176.659 212.564 173.5C212.3 173.257 212.01 173.015 211.693 172.775C209.454 171.081 207.795 170.607 206.638 170.607Z" fill="#413A9F"/>
<path d="M168.637 320.074C168.637 320.074 168.607 320.567 168.27 321.076C167.934 321.586 167.742 321.946 167.098 321.944C166.454 321.942 159.829 319.443 157.237 316.833C154.645 314.223 146.569 302.82 146.538 302.259C146.507 301.699 147.567 300.84 148.237 301.134C148.907 301.426 168.637 320.074 168.637 320.074Z" fill="#1C5A7F"/>
<path d="M168.636 320.074C168.636 320.074 171.858 317.367 171.467 314.092C171.078 310.818 167.668 308.148 167.475 307.542C167.282 306.938 169.113 305.255 168.677 304.473C168.242 303.69 166.424 301.793 166.424 301.793L164.695 298.502L155.685 294.999C155.685 294.999 155.165 294.596 153.81 295.501C152.456 296.406 148.172 300.143 148.236 301.135C148.299 302.124 156.059 312.963 159.53 315.569C163.004 318.175 167.932 320.575 168.636 320.074Z" fill="#7F60F9"/>
<path d="M168.981 311.45L168.925 311.431C168.907 311.416 167.099 309.977 165.265 309.263C163.439 308.554 162.36 308.628 162.348 308.63L162.253 308.547L162.335 308.452C162.379 308.448 163.464 308.374 165.33 309.098C167.19 309.82 169.019 311.278 169.037 311.293L169.051 311.418L168.981 311.45Z" fill="#591C16"/>
<path d="M171.464 314.067C171.465 314.076 171.466 314.085 171.467 314.093C171.498 314.345 171.506 314.592 171.497 314.836C171.507 314.598 171.5 314.356 171.47 314.11C171.467 314.096 171.466 314.081 171.464 314.067ZM168.741 304.677C168.831 305.496 167.375 306.913 167.465 307.498C167.404 306.898 168.852 305.486 168.741 304.677Z" fill="#7F7F7F"/>
<path d="M162.348 308.63L162.253 308.547L162.335 308.452C162.343 308.451 162.387 308.448 162.465 308.448C162.808 308.448 163.809 308.508 165.329 309.098C167.189 309.82 169.019 311.278 169.036 311.292L169.05 311.418L168.981 311.451L168.925 311.432C168.907 311.417 167.099 309.977 165.265 309.264C163.769 308.683 162.773 308.627 162.457 308.627C162.387 308.627 162.351 308.63 162.348 308.63ZM166.427 301.812C166.427 301.812 166.691 302.09 167.253 303.505C167.816 304.92 166.675 305.694 166.183 306.878C165.788 307.832 166.985 308.373 166.94 308.373C166.929 308.373 166.845 308.341 166.647 308.276C166.067 308.085 164.188 307.804 162.54 307.804C161.309 307.804 160.207 307.961 159.87 308.428C159.141 309.443 160.788 309.803 162.76 309.803C162.916 309.803 163.074 309.801 163.232 309.797C163.275 309.796 163.317 309.795 163.361 309.795C165.502 309.795 167.984 311.282 169.713 312.622C171.338 313.881 171.402 315.389 171.402 315.622C171.451 315.366 171.485 315.104 171.497 314.836C171.507 314.593 171.498 314.345 171.467 314.094C171.467 314.085 171.465 314.076 171.464 314.067C171.05 310.813 167.67 308.164 167.477 307.561C167.471 307.541 167.467 307.521 167.465 307.5C167.375 306.913 168.831 305.498 168.741 304.679C168.732 304.612 168.712 304.549 168.68 304.491C168.244 303.707 166.427 301.812 166.427 301.812Z" fill="#1A5BB7"/>
<path d="M162.465 308.448C162.388 308.448 162.344 308.451 162.335 308.452L162.253 308.547L162.348 308.63C162.351 308.63 162.388 308.627 162.457 308.627C162.774 308.627 163.769 308.683 165.265 309.263C167.099 309.977 168.907 311.416 168.925 311.431L168.981 311.45L169.05 311.417L169.036 311.292C169.018 311.277 167.189 309.82 165.329 309.098C163.81 308.509 162.808 308.448 162.465 308.448Z" fill="#2C0E0B"/>
<path d="M155.309 294.847C155.012 294.847 154.529 294.96 153.811 295.439C152.457 296.343 148.173 300.082 148.237 301.071C148.237 301.074 148.238 301.076 148.238 301.079C148.324 300.012 152.481 296.391 153.811 295.501C154.527 295.022 155.01 294.909 155.306 294.909C155.57 294.909 155.686 294.999 155.686 294.999L155.731 294.953L155.686 294.935C155.686 294.935 155.571 294.847 155.309 294.847Z" fill="white"/>
<path d="M155.307 294.91C155.01 294.91 154.527 295.022 153.811 295.501C152.481 296.39 148.324 300.012 148.238 301.079C148.303 301.72 151.249 306.045 154.314 309.885C154.308 309.869 153.461 307.671 152.294 305.536C151.122 303.394 152.337 298.016 153.639 297.924C153.679 297.921 153.718 297.92 153.756 297.92C154.966 297.92 155.389 299.28 157.198 300.34C158.508 301.108 159.712 301.696 160.312 301.978C159.101 301.131 157.156 299.098 156.376 297.85C155.356 296.217 155.687 294.999 155.687 294.999C155.687 294.999 155.57 294.91 155.307 294.91Z" fill="#D7CDFF"/>
<path d="M226.342 329.269C226.342 329.269 226.66 329.634 226.776 330.241C226.891 330.849 227.008 331.244 226.559 331.73C226.111 332.216 219.804 335.498 216.215 335.65C212.628 335.801 199.204 334.009 198.799 333.644C198.393 333.279 198.538 331.881 199.203 331.578C199.868 331.275 226.342 329.269 226.342 329.269Z" fill="#1C5A7F"/>
<path d="M226.341 329.268C226.341 329.268 226.718 324.954 224.201 322.978C221.683 321.003 217.488 321.732 216.939 321.458C216.389 321.185 216.505 318.632 215.666 318.42C214.826 318.207 212.266 318.268 212.266 318.268L208.808 317.295L200.159 321.686C200.159 321.686 199.522 321.801 199.204 323.451C198.885 325.105 198.48 330.938 199.204 331.577C199.928 332.215 212.745 333.856 216.94 333.036C221.134 332.216 226.197 330.149 226.341 329.268Z" fill="#7F60F9"/>
<path d="M214.064 326.124L214.009 326.105L213.994 325.98C214.023 325.943 214.722 325.073 216.512 324.163C218.296 323.256 220.566 322.882 220.589 322.879L220.691 322.953L220.618 323.055C220.596 323.059 218.353 323.428 216.593 324.323C214.843 325.213 214.141 326.082 214.135 326.092L214.064 326.124Z" fill="#591C16"/>
<path d="M224.236 323.007C224.243 323.012 224.25 323.018 224.257 323.023C224.25 323.018 224.243 323.012 224.236 323.007Z" fill="#7F7F7F"/>
<path d="M214.064 326.125L214.009 326.106L213.994 325.981C214.023 325.944 214.722 325.074 216.512 324.164C218.297 323.257 220.566 322.883 220.589 322.881L220.691 322.954L220.619 323.056C220.596 323.06 218.353 323.429 216.594 324.324C214.843 325.214 214.141 326.083 214.135 326.093L214.064 326.125ZM213.085 318.262C213.079 318.262 213.073 318.262 213.066 318.262C212.6 318.262 212.267 318.27 212.267 318.27C212.267 318.27 212.213 318.268 212.118 318.268C211.537 318.268 209.422 318.337 209.012 319.318C208.921 319.536 208.881 319.769 208.874 320.008C208.878 319.993 208.88 319.972 208.878 319.946C208.853 319.399 210.247 318.99 212.195 318.99C212.387 318.99 212.583 318.994 212.785 319.002C215.036 319.093 215.829 319.411 215.786 320.687C215.744 321.912 212.226 322.423 212.862 322.423C212.889 322.423 212.923 322.422 212.965 322.42C213.735 322.386 215.454 322.028 216.519 322.028C216.895 322.028 217.19 322.073 217.333 322.192C217.882 322.647 214.963 323.604 213.659 324.835C212.597 325.839 212.632 327.815 213.42 327.815C213.598 327.815 213.813 327.714 214.064 327.48C215.422 326.203 219.258 323.97 221.776 323.65C222.131 323.605 222.456 323.585 222.754 323.585C224.562 323.585 225.335 324.299 225.339 324.303C225.239 324.134 225.131 323.969 225.012 323.81C225.01 323.807 225.008 323.805 225.005 323.801C224.998 323.793 224.991 323.784 224.985 323.775C224.777 323.504 224.539 323.253 224.265 323.029C224.262 323.027 224.26 323.025 224.257 323.023C224.25 323.017 224.242 323.011 224.236 323.006C224.224 322.997 224.213 322.988 224.201 322.979C221.683 321.004 217.489 321.733 216.939 321.459C216.39 321.186 216.505 318.633 215.666 318.421C215.284 318.324 214.545 318.284 213.854 318.268C213.582 318.264 213.318 318.262 213.085 318.262Z" fill="#1A5BB7"/>
<path d="M220.588 322.879C220.565 322.883 218.296 323.256 216.511 324.163C214.721 325.074 214.022 325.943 213.993 325.98L214.008 326.105L214.063 326.124L214.133 326.091C214.14 326.081 214.841 325.212 216.592 324.322C218.351 323.427 220.594 323.059 220.617 323.054L220.69 322.952L220.588 322.879Z" fill="#2C0E0B"/>
<path d="M205.107 332.672C205.111 332.673 205.114 332.673 205.118 332.673C205.114 332.673 205.111 332.673 205.107 332.672ZM203.03 332.4C203.049 332.402 203.067 332.405 203.086 332.407C203.067 332.405 203.048 332.402 203.03 332.4Z" fill="#0E2D3F"/>
<path d="M200.16 321.691C200.093 321.708 199.512 321.9 199.213 323.455C198.894 325.108 198.489 330.94 199.213 331.58C199.447 331.787 200.956 332.1 203.03 332.399C203.048 332.402 203.067 332.405 203.085 332.407H203.086C203.709 332.497 204.382 332.585 205.086 332.669C205.093 332.669 205.1 332.67 205.107 332.671C205.11 332.672 205.114 332.672 205.117 332.672C207.886 333.001 211.129 333.261 213.701 333.261C214.474 333.261 215.187 333.238 215.808 333.185C215.711 333.177 214.463 333.071 211.385 332.721C208.173 332.357 204.701 331.687 202.271 329.833C199.913 328.035 200.277 323.835 202.098 323.835C202.154 323.835 202.212 323.84 202.271 323.847C202.502 323.88 202.755 323.894 203.023 323.894C205.028 323.894 207.811 323.094 207.811 323.094L207.808 323.093C207.008 323.237 205.929 323.313 204.904 323.313C204.027 323.313 203.187 323.257 202.593 323.14C200.828 322.793 200.2 321.759 200.16 321.691Z" fill="#1A5BB7"/>
<path d="M212.266 314.35V318.27C212.266 318.27 209.488 318.178 209.012 319.317C208.535 320.457 209.473 322.008 209.012 322.645C208.549 323.283 204.419 323.503 202.593 323.142C200.767 322.782 200.158 321.688 200.158 321.688V314.578L212.266 314.35Z" fill="#F4BB96"/>
<path d="M212.266 314.958C210.888 315.527 208.827 316.036 205.844 316.061C205.833 316.061 205.824 316.061 205.813 316.061C205.793 316.061 205.772 316.061 205.752 316.061C205.74 316.061 205.727 316.061 205.714 316.061C205.689 316.061 205.665 316.061 205.64 316.061C205.635 316.061 205.629 316.061 205.623 316.061C205.622 316.061 205.621 316.061 205.618 316.061H205.617C203.039 316.061 201.313 315.96 200.159 315.833V316.486C200.159 316.486 201.811 317.406 205.026 317.406C205.63 317.406 206.29 317.373 207.005 317.296C211.518 316.806 212.267 315.78 212.267 315.78V314.958" fill="#EE9961"/>
<path d="M169.116 299.077L166.425 301.794C166.425 301.794 164.563 299.628 163.45 300.057C162.337 300.487 161.924 302.271 161.167 302.365C160.409 302.458 157.396 299.483 156.376 297.852C155.356 296.219 155.687 295.001 155.687 295.001L160.564 290.07L169.116 299.077Z" fill="#F4BB96"/>
<path d="M160.42 290.215L159.254 291.393C159.254 291.393 159.979 294.061 163.444 297.137C165.077 298.586 166.212 299.32 166.956 299.692C165.978 298.789 164.861 297.603 163.664 296.057C161.782 293.628 160.865 291.639 160.42 290.215Z" fill="#EE9961"/>
<path d="M204.39 272.533C201.927 272.502 200.034 271.613 197.973 270.358C197.784 270.244 197.607 270.138 197.432 270.038C197.387 265.249 197.257 261.824 197.257 261.824C197.257 261.824 196.428 265.451 195.306 269.54C193.799 269.743 192.381 270.911 190.856 271.245C188.28 271.809 185.583 271.437 183.176 270.385C181.152 269.498 179.419 268.246 177.963 266.702C179.806 261.563 182.252 248.391 182.328 243.394C182.414 237.579 182.979 235.275 184.932 231.161C186.884 227.047 189.245 225.362 189.245 225.362L213.184 230.172C213.184 230.172 212.899 254.805 213.184 268.844C210.713 270.986 208.103 272.578 204.39 272.533Z" fill="white"/>
<path d="M160.017 287.73C160.017 287.73 175.294 270.936 177.117 268.522C177.378 268.178 177.668 267.53 177.974 266.671L177.964 266.702C181.849 263.608 184.511 262.82 186.536 263.706C188.942 264.76 194.219 266.374 195.306 269.54C194.16 273.718 192.71 278.377 191.527 280.151C189.183 283.66 170.767 302.367 170.767 302.367C170.767 302.367 167.657 301.213 163.665 296.057C159.671 290.902 160.017 287.73 160.017 287.73ZM197.429 269.734C197.43 269.786 198.711 268.041 200.298 266.295C201.87 264.569 203.742 262.841 204.967 262.855C208.677 262.901 208.714 264.071 213.181 268.844C213.284 273.91 213.421 278.54 213.603 281.759C214.296 293.9 214.7 313.373 214.7 313.373C214.7 313.373 212.675 316.061 205.616 316.061C198.556 316.061 197.879 315.307 197.879 315.307C197.879 315.307 196.819 293.864 197.253 283.551C197.456 278.763 197.429 269.734 197.429 269.734Z" fill="white"/>
<path d="M173.797 299.359L173.743 299.341C173.706 299.313 170.045 296.548 167.062 292.15C164.076 287.746 163.577 283.763 163.571 283.724L163.649 283.625L163.747 283.703C163.753 283.742 164.249 287.685 167.21 292.05C170.174 296.422 173.814 299.172 173.85 299.199L173.868 299.323L173.797 299.359ZM206.948 310.969C206.851 310.969 206.755 310.969 206.657 310.969C200.925 310.909 197.654 310.07 197.622 310.061L197.558 309.953L197.667 309.889C197.7 309.898 200.95 310.731 206.658 310.79C206.753 310.792 206.848 310.792 206.94 310.792C212.409 310.792 214.523 309.093 214.545 309.077L214.67 309.088L214.658 309.214C214.571 309.287 212.481 310.969 206.948 310.969Z" fill="#591C16"/>
<path d="M177.386 268.082C177.294 268.259 177.204 268.407 177.117 268.522C175.872 270.172 168.344 278.535 163.701 283.667C168.344 278.535 175.871 270.171 177.117 268.522C177.204 268.408 177.293 268.26 177.386 268.082ZM180.097 258.555C179.675 260.547 179.227 262.435 178.787 264.035C179.226 262.438 179.674 260.553 180.097 258.564C180.097 258.558 180.097 258.555 180.097 258.555Z" fill="white"/>
<path d="M180.097 258.562C179.674 260.552 179.226 262.436 178.787 264.034C178.507 265.055 178.23 265.959 177.965 266.699C178.523 266.255 179.057 265.858 179.566 265.507C179.762 263.329 179.92 261.157 180.012 259.835C179.608 261.208 179.237 262.471 178.93 263.507C179.323 262.029 179.72 260.338 180.097 258.564V258.562Z" fill="#BCBBB7"/>
<path d="M163.582 283.799C161.493 286.108 160.018 287.73 160.018 287.73C160.018 287.73 160.01 287.8 160.01 287.936C160.01 288.715 160.264 291.667 163.665 296.058C163.665 296.058 164.482 293.445 165.824 290.108C164.1 286.901 163.651 284.269 163.582 283.799ZM179.566 265.508C179.056 265.859 178.524 266.256 177.965 266.7C177.764 267.264 177.569 267.732 177.386 268.082C177.293 268.26 177.203 268.408 177.116 268.522C175.871 270.172 168.343 278.535 163.7 283.667L163.746 283.703C163.75 283.736 164.094 286.466 165.91 289.893C167.072 287.026 168.61 283.666 170.346 280.973C174.166 275.051 177.985 274.375 178.679 272.188C178.993 271.205 179.311 268.352 179.566 265.508Z" fill="#BCBBB7"/>
<path d="M163.701 283.667C163.661 283.711 163.62 283.756 163.581 283.799C163.651 284.269 164.099 286.901 165.824 290.108C165.852 290.037 165.882 289.964 165.91 289.893C164.095 286.466 163.751 283.736 163.747 283.703L163.701 283.667Z" fill="#973025"/>
<path d="M213.168 231.74C211.403 232.397 208.559 233.236 205.254 233.385C204.845 233.404 204.446 233.413 204.057 233.413C202.086 233.413 200.361 233.185 198.774 232.83C200.376 233.506 201.602 234.102 201.992 234.481C203.303 235.751 210.772 235.833 212.681 235.833C212.963 235.833 213.124 235.831 213.124 235.831L213.168 231.74Z" fill="#C0C0C0"/>
<path d="M200.994 244.546L197.261 261.831C197.261 261.831 197.386 265.106 197.435 269.733C197.53 269.652 198.773 267.974 200.299 266.296C200.329 266.262 200.36 266.229 200.391 266.195C200.796 256.49 200.994 244.546 200.994 244.546Z" fill="#BCBBB7"/>
<path d="M197.656 310.071C197.784 313.236 197.886 315.307 197.886 315.307C197.886 315.307 198.565 316.061 205.618 316.062C205.626 316.062 205.633 316.062 205.64 316.062C205.664 316.062 205.689 316.062 205.713 316.062C205.726 316.062 205.739 316.062 205.752 316.062C205.772 316.062 205.793 316.062 205.813 316.062C205.823 316.062 205.834 316.062 205.843 316.062C206.881 316.053 207.796 315.982 208.62 315.874C208.568 315.836 206.184 314.081 204.18 310.894C200.262 310.685 197.959 310.145 197.656 310.071ZM200.39 266.194C200.36 266.228 200.329 266.262 200.298 266.296C198.772 267.974 197.529 269.652 197.434 269.733C197.477 273.742 197.462 278.765 197.261 283.552C196.964 290.603 197.365 302.855 197.648 309.901L197.666 309.89C197.693 309.897 199.975 310.482 204.065 310.707C203.013 308.991 202.083 306.875 201.676 304.4C200.478 297.106 198.94 283.736 199.767 276.2C200.012 273.967 200.22 270.28 200.39 266.194Z" fill="#C0C0C0"/>
<path d="M197.667 309.89L197.649 309.901C197.651 309.958 197.654 310.014 197.656 310.071C197.958 310.145 200.262 310.685 204.18 310.892C204.142 310.831 204.104 310.769 204.065 310.707C199.976 310.482 197.694 309.897 197.667 309.89Z" fill="#2C0E0B"/>
<path d="M184.423 232.263C182.876 235.735 182.404 238.12 182.325 243.398C182.285 246.125 181.538 251.286 180.568 256.249C181.538 251.286 182.287 246.121 182.327 243.392C182.406 238.118 182.878 235.732 184.423 232.263Z" fill="white"/>
<path d="M185.761 229.586C185.481 230.067 185.201 230.593 184.93 231.166C184.75 231.545 184.581 231.91 184.424 232.263C182.879 235.732 182.407 238.118 182.328 243.393C182.287 246.121 181.539 251.286 180.569 256.25V256.252C180.565 256.274 180.56 256.295 180.556 256.316C180.553 256.332 180.55 256.348 180.547 256.363C180.545 256.374 180.543 256.385 180.541 256.395C180.397 257.126 180.249 257.852 180.098 258.565C180.094 258.638 180.063 259.109 180.013 259.836C181.671 254.198 183.866 246.682 184.237 245.15C184.845 242.635 184.063 240.554 185.018 237.036C185.601 234.886 187.017 231.816 188.029 229.753C187.177 229.652 186.398 229.606 185.761 229.586Z" fill="#BCBBB7"/>
<path d="M180.096 258.564C179.719 260.337 179.323 262.028 178.93 263.507C179.236 262.471 179.608 261.209 180.012 259.835C180.062 259.108 180.092 258.637 180.096 258.564Z" fill="#FEF852"/>
<path d="M214.542 220.281C214.396 218.674 214.346 207.525 214.507 205.754C214.523 205.583 214.36 204.582 214.405 204.44C214.225 204.326 214.395 202.997 214.395 202.997C214.395 202.997 214.464 202.946 214.58 202.86C213.088 200.256 212.353 197.322 210.633 194.842C209.448 193.134 208.22 191.435 206.978 189.747L197.943 191.997C197.943 191.997 192.772 194.155 189.134 204.125C185.496 214.094 184.068 229.596 184.068 229.596C184.068 229.596 188.451 229.322 192.249 230.713C196.045 232.105 199.686 233.636 205.253 233.385C210.82 233.133 215.078 230.925 215.078 230.925L214.524 223.09C214.287 222.288 214.614 221.093 214.542 220.281Z" fill="#7F60F9"/>
<path d="M226.07 185.344C224.92 183.287 223.478 181.515 222.114 179.669C216.28 184.086 209.196 189.537 206.938 191.265C206.173 192.252 207.038 194.472 208.057 195.939C209.755 198.387 210.693 200.917 214.58 202.86C217.898 200.415 224.133 195.811 229.63 191.709C228.361 189.63 227.216 187.394 226.07 185.344Z" fill="#7F60F9"/>
<path d="M243.136 164.413C243.136 164.413 235.881 169.527 230.683 173.266C229.529 174.095 224.382 177.962 222.114 179.67C221.19 181.681 221.285 185.466 222.476 187.593C223.587 189.579 225.531 191.935 229.63 191.71C232.387 189.64 237.949 185.454 239.216 184.45C244.732 180.075 250.581 175.95 250.581 175.95L243.136 164.413Z" fill="#7F60F9"/>
<path d="M196.94 192.585C196.94 192.585 198.605 195.338 202.096 196.509C205.587 197.681 207.327 196.325 208.272 195.415C209.216 194.503 208.595 191.965 208.595 191.965L197.944 191.998L196.94 192.585Z" fill="#1C5A7F"/>
<path d="M214.872 202.646H214.87C214.771 202.718 214.675 202.79 214.58 202.859C214.531 202.896 214.49 202.925 214.46 202.947L214.872 202.646Z" fill="#7F7F7F"/>
<path d="M215.106 202.472C215.026 202.531 214.948 202.589 214.871 202.646H214.873L215.105 202.475L215.106 202.472Z" fill="#EE2C1C"/>
<path d="M217.267 200.878C216.474 201.463 215.748 202 215.107 202.472V202.473L217.272 200.881L217.267 200.878Z" fill="#E5160E"/>
<path d="M213.307 202.14C213.312 202.16 213.318 202.18 213.323 202.2L214.45 202.908L214.46 202.948C214.49 202.926 214.531 202.896 214.579 202.86C214.116 202.628 213.694 202.388 213.307 202.14Z" fill="#1A5BB7"/>
<path d="M212.038 197.988C212.038 197.988 212.718 199.92 213.307 202.14C213.694 202.388 214.116 202.629 214.58 202.86C214.674 202.79 214.772 202.719 214.871 202.646C214.948 202.589 215.026 202.531 215.106 202.472C215.747 202 216.473 201.464 217.266 200.879L212.038 197.988Z" fill="#1A5BB7"/>
<path d="M214.448 222.002C214.425 222.395 214.43 222.773 214.524 223.092L214.607 224.264L214.448 222.002Z" fill="#7F7F7F"/>
<path d="M192.692 230.876C192.853 230.936 193.014 230.995 193.176 231.055C193.016 230.996 192.855 230.936 192.694 230.877C192.693 230.877 192.692 230.876 192.692 230.876Z" fill="#F1810E"/>
<path d="M195.062 212.518L205.767 220.258C206.181 221.33 208.449 227.362 207.853 229.488C207.268 231.581 205.441 232.413 201.963 232.413C201.557 232.413 201.129 232.402 200.678 232.379C196.417 232.172 192.792 230.911 192.694 230.876C192.855 230.936 193.016 230.995 193.176 231.055C196.375 232.24 199.586 233.412 204.06 233.412C204.448 233.412 204.846 233.403 205.253 233.385C210.819 233.133 215.078 230.925 215.078 230.925L214.784 226.778L214.607 224.262L214.525 223.09C214.431 222.773 214.425 222.393 214.448 222L214.428 221.714L214.421 221.711L214.42 221.71L214.419 221.709L214.417 221.709L214.417 221.708L214.415 221.707L214.413 221.706C214.348 221.676 214.082 221.549 213.265 221.161C213.249 221.154 213.241 221.151 213.241 221.151L213.24 221.149C212.65 220.869 211.778 220.455 210.499 219.847L209.824 219.527C205.827 217.632 202.433 216.592 196.872 213.375L195.062 212.518Z" fill="#1A5BB7"/>
<path d="M218.706 199.815C218.223 200.172 217.757 200.516 217.311 200.845C217.311 200.847 217.31 200.85 217.31 200.852L218.706 199.815Z" fill="#EE2C1C"/>
<path d="M217.31 200.845C217.296 200.856 217.281 200.867 217.266 200.878L217.271 200.881L217.31 200.852C217.31 200.85 217.31 200.848 217.31 200.845Z" fill="#E5160E"/>
<path d="M229.614 191.71C229.436 191.72 229.263 191.724 229.093 191.724C228.99 191.724 228.89 191.723 228.79 191.719L215.548 199.929L217.267 200.879C217.282 200.868 217.296 200.857 217.311 200.846C217.757 200.517 218.223 200.172 218.706 199.815L229.614 191.71Z" fill="#1A5BB7"/>
<path d="M230.257 190.809L228.79 191.718C228.89 191.722 228.991 191.723 229.093 191.723C229.262 191.723 229.437 191.718 229.614 191.709L230.387 191.135L230.257 190.809Z" fill="#1A5BB7"/>
<path d="M224.972 177.501C222.216 179.572 219.101 181.935 216.412 183.982C216.414 183.989 216.416 183.996 216.418 184.004C218.314 182.555 220.276 181.062 222.114 179.67C222.846 179.119 223.878 178.343 224.978 177.517L224.972 177.501Z" fill="white"/>
<path d="M215.187 184.914C214.495 185.441 213.844 185.938 213.249 186.393C213.253 186.401 213.257 186.409 213.261 186.417C213.89 185.936 214.54 185.438 215.204 184.93C215.199 184.925 215.193 184.919 215.187 184.914ZM216.412 183.981L216.411 183.982C216.413 183.989 216.415 183.996 216.417 184.004L216.419 184.003C216.416 183.995 216.414 183.988 216.412 183.981Z" fill="#FC9661"/>
<path d="M216.411 183.981C215.992 184.3 215.583 184.612 215.187 184.913C215.193 184.919 215.199 184.923 215.204 184.929C215.604 184.623 216.008 184.314 216.417 184.003C216.415 183.995 216.413 183.989 216.411 183.981Z" fill="#FDDA91"/>
<path d="M196.941 192.587C195.684 193.449 193.424 195.411 191.254 199.391C191.282 199.355 191.665 198.862 192.213 198.218L192.214 198.217C192.871 197.252 193.549 196.573 194.206 196.1C194.731 195.614 195.24 195.223 195.645 195.065C197.139 194.48 198.474 194.365 198.474 194.365C198.474 194.365 198.481 194.369 198.494 194.376C197.476 193.451 196.967 192.629 196.941 192.587ZM197.928 192.008C197.862 192.037 197.51 192.199 196.965 192.57L197.928 192.008ZM198.54 191.853L197.957 191.998L198.518 191.996C198.526 191.949 198.533 191.901 198.54 191.853ZM208.966 190.799L208.88 191.125L209.361 190.989L209.471 190.902C209.17 190.867 208.981 190.804 208.966 190.799ZM222.115 179.669C220.276 181.061 218.315 182.555 216.419 184.003L216.417 184.004C216.009 184.315 215.605 184.625 215.205 184.93C214.541 185.438 213.89 185.936 213.262 186.417C213.451 186.811 213.547 187.255 213.504 187.729L221.634 181.333C221.737 180.71 221.898 180.141 222.115 179.669Z" fill="#D7CDFF"/>
<path d="M224.979 177.516C223.878 178.342 222.847 179.118 222.114 179.669C221.897 180.141 221.737 180.71 221.634 181.332L225.337 178.418L224.979 177.516Z" fill="#D7CDFF"/>
<path d="M198.518 191.996L197.957 191.998L197.94 192.002C197.94 192.002 197.936 192.003 197.928 192.007L196.965 192.57C196.958 192.575 196.95 192.58 196.941 192.586C196.967 192.627 197.476 193.45 198.495 194.376C198.647 194.462 199.63 195.011 200.097 195.011C200.155 195.011 200.205 195.003 200.244 194.984C200.371 194.923 200.351 194.762 200.268 194.574C199.07 194.122 198.246 193.66 198.246 193.66C198.246 193.66 198.384 192.889 198.518 191.996Z" fill="#3099D8"/>
<path d="M189.711 202.554C189.507 203.049 189.304 203.554 189.107 204.094C185.468 214.063 184.042 229.565 184.042 229.565C184.042 229.565 184.052 229.564 184.072 229.563C184.147 228.765 185.594 213.827 189.134 204.127C189.297 203.681 189.462 203.252 189.63 202.837C189.67 202.698 189.697 202.603 189.711 202.554Z" fill="white"/>
<path d="M189.631 202.836C189.463 203.252 189.297 203.681 189.135 204.127C185.594 213.826 184.147 228.764 184.072 229.563C184.168 229.558 184.482 229.544 184.953 229.544C185.72 229.544 186.904 229.581 188.246 229.754H188.254C188.254 229.754 186.382 228.159 186.326 226.737C186.27 225.313 186.392 223.459 186.734 217.543C187.037 212.282 189.164 204.495 189.631 202.836Z" fill="#D7CDFF"/>
<path d="M198.489 195.293C198.489 195.293 195.141 193.919 192.215 198.217C189.29 202.517 191.288 210.148 196.867 213.375C202.445 216.602 205.844 217.64 209.855 219.544C213.867 221.45 214.428 221.716 214.428 221.716C214.428 221.716 218.919 221.161 221.037 216.596C223.156 212.031 220.863 206.903 220.863 206.903C220.863 206.903 202.85 195.735 198.489 195.293Z" fill="#7F60F9"/>
<path d="M271.444 226.074C270.415 232.409 264.444 236.711 258.109 235.68C251.774 234.651 247.474 228.68 248.503 222.344C249.533 216.009 255.503 211.709 261.839 212.738C268.174 213.769 272.475 219.739 271.444 226.074Z" fill="black"/>
<path d="M271.227 227.106L248.335 223.384L250.368 210.874L273.261 214.595L271.227 227.106Z" fill="black"/>
<path d="M194.406 103.964L191.072 119.318L201.108 132.419C201.108 132.419 214.018 106.235 232.023 110.08C250.027 113.924 252.901 118.744 253.017 125.378C253.134 132.013 265.206 132.586 264.266 123.396C263.328 114.207 243.868 92.7967 226.671 93.8243C209.473 94.8519 194.406 103.964 194.406 103.964Z" fill="#BAABAB"/>
<path d="M194.406 103.963L206.275 117.535C206.275 117.535 218.909 96.4754 240.862 106.822C262.815 117.169 249.787 138.512 243.736 141.525C237.685 144.539 226.85 150.249 226.85 150.249L243.276 195.672L262.138 187.615L251.65 160.19C251.65 160.19 272.774 146.768 271.883 121.25C270.99 95.7327 248.756 87.5756 232.793 84.8309C208.787 80.7037 194.406 103.963 194.406 103.963Z" fill="white"/>
<path d="M219.609 163.992L226.851 150.25L243.277 195.672L262.139 187.615L258.975 200.854L238.208 210.834L219.609 163.992Z" fill="#BAABAB"/>
<path d="M251.651 160.191L251.924 162.516C252.113 162.451 252.296 162.389 252.47 162.331L251.651 160.191ZM257.028 174.251C256.974 174.269 256.918 174.287 256.861 174.304C256.26 174.488 255.501 174.635 254.784 174.728C254.787 174.727 254.795 174.725 254.806 174.723C254.279 174.791 253.774 174.828 253.368 174.829L255.215 190.573L262.138 187.615L257.028 174.251Z" fill="#FB9966"/>
<path d="M273.31 214.605C272.279 220.94 266.309 225.24 259.974 224.211C253.64 223.18 249.338 217.211 250.368 210.875C251.398 204.54 257.368 200.24 263.702 201.269C270.038 202.299 274.339 208.268 273.31 214.605Z" fill="white"/>
<path d="M246.121 218.353C246.121 218.353 247.449 219.26 249.111 219.322C250.772 219.385 252.479 215.352 253.53 214.561C254.581 213.771 256.55 214.867 256.876 215.464C257.203 216.058 254.31 220.074 255.233 221.66C256.157 223.242 260.101 222.962 261.688 222.499C263.277 222.036 264.508 220.6 265.42 220.897C266.334 221.193 266.599 222.257 266.539 222.728C266.479 223.197 266.233 223.668 266.233 223.668C266.233 223.668 266.881 224.215 267.084 225.289C267.284 226.364 266.338 227.586 266.338 227.586C266.338 227.586 266.944 228.548 266.456 229.674C265.967 230.799 264.146 231.983 264.146 231.983C264.146 231.983 264.694 233.996 263.07 235.028C261.447 236.061 255.831 236.686 252.845 235.991C249.859 235.297 246.806 233.206 246.277 232.667C245.749 232.129 241.762 230.805 241.762 230.805L246.121 218.353Z" fill="#F4BB96"/>
<path d="M258.482 226.921C258.067 226.921 257.855 226.87 257.834 226.865L257.759 226.738L257.885 226.661C257.901 226.666 259.198 226.968 261.931 225.979C264.682 224.983 266.148 223.607 266.161 223.593L266.31 223.597L266.307 223.746C266.292 223.76 264.797 225.163 262.002 226.176C260.289 226.796 259.134 226.921 258.482 226.921ZM259.952 230.821C259.76 230.821 259.679 230.798 259.671 230.795L259.603 230.663L259.735 230.595C259.739 230.597 260.336 230.756 262.407 230.077C264.511 229.387 266.243 227.536 266.261 227.517L266.409 227.512L266.415 227.66C266.398 227.678 264.629 229.569 262.473 230.277C261.064 230.738 260.313 230.821 259.952 230.821ZM260.132 233.813L260.031 233.736L260.105 233.607C262.598 232.948 264.071 231.909 264.086 231.899L264.232 231.924L264.208 232.07C264.193 232.081 262.691 233.14 260.159 233.81L260.132 233.813Z" fill="#591C16"/>
<path d="M214.395 203.101L214.339 203.085L208.072 199.151L208.039 199.007L208.184 198.974L214.451 202.908L214.484 203.052L214.395 203.101Z" fill="#591C16"/>
<path d="M242.706 231.13C242.707 231.13 242.707 231.13 242.706 231.13V231.13ZM246.854 218.75V218.752C247.317 218.965 247.967 219.203 248.706 219.291L248.707 219.289L246.854 218.75Z" fill="#7F7F7F"/>
<path d="M246.854 218.752L242.706 231.13L248.706 219.291C247.967 219.203 247.317 218.966 246.854 218.752Z" fill="#EE9961"/>
<path d="M261.576 222.531C260.897 222.713 259.859 222.86 258.807 222.862C259.859 222.86 260.897 222.713 261.576 222.531ZM261.723 222.489H261.722C261.722 222.49 261.723 222.49 261.723 222.489ZM261.757 222.479C261.756 222.479 261.756 222.479 261.755 222.479C261.756 222.479 261.756 222.479 261.757 222.479ZM255.151 221.455L255.145 221.463C255.145 221.463 255.145 221.466 255.145 221.471C255.169 221.537 255.198 221.601 255.233 221.66C255.197 221.597 255.176 221.523 255.151 221.455Z" fill="#E82D1E"/>
<path d="M264.819 220.922C264.002 221.155 262.991 222.097 261.757 222.48L261.755 222.48C261.744 222.484 261.733 222.487 261.723 222.49H261.722C261.711 222.494 261.7 222.497 261.688 222.5C261.653 222.51 261.615 222.521 261.576 222.531C260.897 222.713 259.859 222.86 258.807 222.863C258.799 222.863 258.79 222.863 258.781 222.863C258.775 222.863 258.769 222.863 258.764 222.863C257.337 222.86 255.897 222.59 255.311 221.78C255.283 221.741 255.257 221.701 255.233 221.661C255.198 221.601 255.169 221.537 255.145 221.472C255.144 221.575 255.171 222.598 256.449 223.182C257.077 223.469 257.791 223.622 258.593 223.622C259.51 223.622 260.542 223.423 261.695 222.996C263.625 222.282 264.364 221.146 264.819 220.922Z" fill="#EE9961"/>
<path d="M247.083 218.07L242.437 231.933C242.437 231.933 226.109 226.443 221.861 224.76C217.614 223.076 213.239 221.152 213.239 221.152C213.239 221.152 208.653 215.823 212.019 210.723C215.382 205.623 220.654 206.773 220.654 206.773C220.654 206.773 224.804 209.217 228.294 210.704C231.783 212.189 244.388 217.219 247.083 218.07Z" fill="#7F60F9"/>
<path d="M209.861 200.276C210.123 200.473 210.432 200.705 210.78 200.965C211.406 201.316 212.025 201.667 212.631 202.014L209.861 200.276Z" fill="#D7CDFF"/>
<path d="M214.481 203.039L214.484 203.052L214.457 203.067C214.875 203.311 215.283 203.55 215.676 203.781C215.282 203.537 214.881 203.288 214.481 203.039Z" fill="white"/>
<path d="M210.78 200.965C212.736 202.428 215.919 204.767 218.775 206.681C218.977 206.667 219.167 206.663 219.342 206.663C220.127 206.663 220.63 206.768 220.654 206.773C220.381 206.62 220.121 206.473 219.879 206.334C219.118 205.9 217.469 204.892 215.677 203.781C215.284 203.55 214.876 203.311 214.458 203.067L214.396 203.101L214.34 203.085L212.633 202.013C212.025 201.667 211.406 201.315 210.78 200.965Z" fill="#D7CDFF"/>
<path d="M208.919 199.558C208.919 199.558 209.267 199.826 209.862 200.274L212.632 202.012L214.339 203.083L214.395 203.099L214.456 203.066L214.484 203.05L214.481 203.038C211.677 201.296 208.919 199.558 208.919 199.558Z" fill="#973025"/>
<path d="M228.003 210.579C228.077 210.611 228.151 210.643 228.226 210.675C228.15 210.643 228.076 210.61 228.003 210.579ZM220.667 206.781C220.842 206.884 222.778 208.016 225.067 209.18C223.763 208.496 222.058 207.563 220.667 206.781Z" fill="white"/>
<path d="M219.341 206.662C219.166 206.662 218.976 206.668 218.774 206.68C220.594 207.9 222.281 208.946 223.433 209.482C227.443 211.349 233.103 212.746 233.103 212.746C233.103 212.746 230.217 211.534 228.225 210.674C228.152 210.642 228.077 210.61 228.003 210.578C227.409 210.321 226.915 210.103 226.632 209.971C226.269 209.802 225.718 209.522 225.067 209.179C222.777 208.015 220.842 206.883 220.667 206.78C220.662 206.778 220.657 206.776 220.653 206.773C220.63 206.768 220.126 206.662 219.341 206.662Z" fill="#D7CDFF"/>
<path d="M253.917 161.865C253.917 161.865 248.383 163.563 248.163 164.229C247.944 164.896 248.259 166.107 248.635 166.393C249.012 166.679 249.395 166.582 249.395 166.582C249.395 166.582 248.452 167.567 249.14 168.754C249.829 169.939 250.583 169.713 250.583 169.713C250.583 169.713 249.546 170.35 250.126 171.712C250.708 173.073 251.658 172.709 251.658 172.709C251.658 172.709 251.72 174.493 252.647 174.763C253.576 175.032 257.663 174.45 258.009 173.67C258.356 172.889 257.822 171.65 257.559 171.394C257.296 171.139 257.078 171.11 257.078 171.11C257.078 171.11 257.634 170.709 257.331 169.633C257.027 168.557 256.171 168.09 256.171 168.09C256.171 168.09 256.537 167.719 256.239 166.468C255.939 165.217 255.064 165 255.064 165C255.064 165 255.495 164.92 255.286 163.672C255.076 162.424 254.518 161.675 253.917 161.865Z" fill="#F4BB96"/>
<path d="M249.394 166.653L249.324 166.597L249.379 166.511C249.42 166.503 253.445 165.571 255.037 164.932L255.129 164.971L255.09 165.064C253.488 165.706 249.452 166.642 249.411 166.651L249.394 166.653ZM250.583 169.784L250.513 169.724L250.571 169.642C250.607 169.635 254.28 168.977 256.137 168.025L256.233 168.056L256.203 168.151C254.326 169.113 250.633 169.776 250.596 169.782L250.583 169.784ZM251.657 172.781L251.587 172.72L251.646 172.64C251.682 172.634 255.23 172.068 257.042 171.047L257.14 171.075L257.112 171.171C255.277 172.206 251.704 172.775 251.669 172.78L251.657 172.781Z" fill="#591C16"/>
<path d="M256.212 168.127L256.203 168.151C255.757 168.38 255.208 168.592 254.63 168.782C254.887 168.905 255.568 169.307 255.673 170.156C255.772 170.962 255.524 171.521 255.404 171.737C256.005 171.538 256.58 171.307 257.042 171.046L257.115 171.067C257.245 170.934 257.561 170.506 257.316 169.637C257.059 168.725 256.406 168.251 256.212 168.127ZM255.108 165.022L255.09 165.065C254.68 165.229 254.11 165.413 253.489 165.595C253.852 165.761 255.073 166.378 255.249 167.204C255.396 167.898 254.964 168.386 254.707 168.606C255.233 168.429 255.729 168.235 256.137 168.025L256.193 168.043C256.278 167.906 256.463 167.468 256.226 166.473C255.972 165.416 255.309 165.096 255.108 165.022ZM254.089 161.84C254.028 161.84 253.966 161.85 253.904 161.869C253.904 161.869 252.799 162.208 251.559 162.643C251.559 162.643 251.58 162.642 251.615 162.642C251.897 162.642 253.171 162.697 253.555 163.673C253.902 164.551 253.587 165.222 253.447 165.458C254.064 165.277 254.63 165.095 255.036 164.932L255.118 164.967C255.23 164.881 255.424 164.595 255.271 163.675C255.083 162.557 254.616 161.84 254.089 161.84Z" fill="#EE9961"/>
<path d="M256.861 174.304C256.264 174.486 255.515 174.631 254.805 174.723C254.794 174.725 254.787 174.727 254.783 174.728C255.501 174.636 256.259 174.489 256.861 174.304Z" fill="#F96633"/>
<path d="M257.124 171.128L257.112 171.17C256.656 171.427 256.093 171.655 255.505 171.853C255.884 171.911 256.788 172.155 256.635 173.158C256.455 174.327 255.016 174.676 254.805 174.722C255.515 174.63 256.264 174.485 256.861 174.304C257.45 174.123 257.89 173.907 257.993 173.674C258.34 172.892 257.806 171.655 257.545 171.399C257.366 171.223 257.206 171.154 257.124 171.128Z" fill="#EE9961"/>
<path d="M255.037 164.932C254.63 165.095 254.065 165.277 253.447 165.459C253.412 165.518 253.387 165.55 253.387 165.55C253.387 165.55 253.424 165.565 253.489 165.594C254.11 165.412 254.68 165.229 255.09 165.064L255.108 165.022C255.071 165.008 255.05 165.003 255.05 165.003C255.05 165.003 255.079 164.997 255.119 164.966L255.037 164.932ZM256.137 168.025C255.729 168.235 255.233 168.429 254.707 168.606C254.605 168.694 254.532 168.739 254.532 168.739C254.532 168.739 254.569 168.753 254.63 168.782C255.208 168.592 255.757 168.38 256.204 168.151L256.212 168.127C256.177 168.105 256.156 168.093 256.156 168.093C256.156 168.093 256.171 168.078 256.193 168.043L256.137 168.025ZM257.042 171.046C256.58 171.306 256.005 171.537 255.404 171.737C255.367 171.802 255.343 171.836 255.343 171.836C255.343 171.836 255.407 171.838 255.505 171.853C256.094 171.655 256.657 171.427 257.113 171.17L257.124 171.128C257.086 171.115 257.063 171.112 257.063 171.112C257.063 171.112 257.084 171.098 257.115 171.066L257.042 171.046Z" fill="#2C0E0B"/>
<path d="M206.096 190.392C207.166 190.4 208.077 190.524 208.962 190.808L208.964 190.798C208.964 190.798 211.159 191.568 212.838 189.337C214.517 187.107 212.749 184.999 210.994 184.785C209.238 184.569 208.57 186.052 208.57 186.052C208.57 186.052 207.358 186.684 206.347 185.634C205.335 184.584 206.418 183.054 206.418 183.054C206.418 183.054 204.056 182.443 203.03 180.086C202.005 177.728 202.78 176.163 202.78 176.163C202.78 176.163 201.679 178.14 200.198 178.267C198.716 178.394 197.608 178.314 197.608 178.314C197.608 178.314 195.576 183.112 196.621 185.445C197.31 186.98 197.97 187.897 198.37 188.587C199.857 190.556 202.399 190.488 204.731 190.42C205.198 190.404 205.656 190.39 206.096 190.392Z" fill="#F4BB96"/>
<path d="M204.162 188.629C201.525 188.613 200.717 188.42 198.374 188.576C198.582 188.934 198.722 189.235 198.752 189.522C198.84 190.364 198.245 193.661 198.245 193.661C198.245 193.661 200.798 195.091 203.452 195.387C206.105 195.684 208.27 193.419 208.27 193.419L208.965 190.798C208.984 189.676 205.232 188.635 204.162 188.629Z" fill="#F4BB96"/>
<path d="M210.222 189.727L210.166 189.71C210.127 189.683 209.219 189.039 209.213 187.949C209.206 186.872 209.921 186.034 209.951 185.999L210.09 185.989L210.1 186.127C210.093 186.136 209.404 186.946 209.411 187.947C209.417 188.936 210.271 189.542 210.279 189.548L210.303 189.685L210.222 189.727Z" fill="#591C16"/>
<path d="M209.34 188.345L209.292 188.332L209.254 188.198C209.268 188.173 209.611 187.57 210.536 187.389C211.467 187.202 212.124 187.78 212.152 187.804L212.16 187.943L212.021 187.952C212.015 187.946 211.398 187.425 210.575 187.582C209.744 187.745 209.429 188.289 209.426 188.295L209.34 188.345Z" fill="#591C16"/>
<path d="M198.287 188.444C198.397 188.659 198.673 189.217 198.753 189.527C198.753 189.529 198.754 189.53 198.754 189.531C198.754 189.528 198.753 189.524 198.753 189.521C198.723 189.251 198.597 188.967 198.409 188.635C198.396 188.619 198.383 188.602 198.371 188.585C198.343 188.539 198.315 188.492 198.287 188.444Z" fill="#E5160E"/>
<path d="M198.24 188.356C198.24 188.356 198.258 188.389 198.286 188.444C198.315 188.493 198.343 188.539 198.37 188.585C198.382 188.602 198.395 188.619 198.408 188.635C198.397 188.615 198.386 188.596 198.374 188.576C198.409 188.574 198.445 188.571 198.48 188.569C198.319 188.435 198.24 188.356 198.24 188.356Z" fill="#EE9961"/>
<path d="M198.481 188.569C198.446 188.571 198.41 188.574 198.375 188.576C198.387 188.595 198.398 188.616 198.409 188.635C198.597 188.967 198.724 189.251 198.753 189.522C198.753 189.525 198.753 189.529 198.753 189.532C198.851 189.926 198.657 191.005 198.657 191.005C198.657 191.005 199.432 191.497 200.559 191.497C200.61 191.497 200.662 191.496 200.714 191.494C201.924 191.445 204.026 190.428 204.026 190.428C204.026 190.428 203.858 190.441 203.581 190.441C202.904 190.441 201.576 190.364 200.484 189.828C199.459 189.324 198.804 188.838 198.481 188.569Z" fill="#EE9961"/>
<path d="M200.6 185.235C200.244 185.235 199.519 185.167 199.311 184.635C199.05 183.972 200.453 181.635 200.613 181.371L200.748 181.338L200.781 181.473C200.17 182.477 199.323 184.129 199.493 184.563C199.714 185.123 200.767 185.031 200.779 185.031L200.886 185.12L200.797 185.226C200.786 185.228 200.711 185.235 200.6 185.235ZM198.091 179.707L198.021 179.678L198.022 179.539C198.046 179.516 198.613 178.965 199.3 178.965H199.318C199.999 178.974 200.33 179.164 200.344 179.173L200.379 179.306L200.244 179.343C200.242 179.341 199.939 179.17 199.316 179.162H199.302C198.695 179.162 198.166 179.674 198.161 179.679L198.091 179.707ZM204.932 181.406L204.856 181.37C204.854 181.367 204.658 181.135 203.962 180.666C203.277 180.204 202.569 180.255 202.561 180.258L202.454 180.168L202.545 180.062C202.575 180.061 203.328 180.001 204.073 180.503C204.8 180.993 205.001 181.235 205.009 181.245L204.995 181.383L204.932 181.406ZM203.597 182.272C203.539 182.584 203.344 182.81 203.162 182.775C202.979 182.741 202.878 182.461 202.936 182.149C202.993 181.837 203.189 181.611 203.372 181.645C203.553 181.679 203.655 181.959 203.597 182.272ZM199.005 181.093C198.947 181.404 198.751 181.63 198.569 181.596C198.386 181.562 198.285 181.282 198.343 180.969C198.401 180.657 198.596 180.431 198.779 180.465C198.961 180.5 199.062 180.78 199.005 181.093ZM201.145 187.872C200.979 187.872 200.798 187.859 200.602 187.829C199.384 187.639 198.733 186.901 198.706 186.87L198.716 186.731L198.855 186.742C198.861 186.749 199.488 187.456 200.632 187.635C201.766 187.809 202.367 187.35 202.372 187.345L202.511 187.36L202.496 187.499C202.473 187.517 202.017 187.872 201.145 187.872Z" fill="#591C16"/>
</svg>
