<svg width="25" height="25" viewBox="0 0 25 25" fill="none" xmlns="http://www.w3.org/2000/svg">
<g id="question">
<g id="Layer 2">
<g id="menu-arrow">
<path id="Vector" d="M19.3756 8.37476C19.3756 6.55139 18.6513 4.80271 17.362 3.5134C16.0727 2.22408 14.324 1.49976 12.5006 1.49976C10.6772 1.49976 8.92856 2.22408 7.63925 3.5134C6.34994 4.80271 5.62561 6.55139 5.62561 8.37476C5.62561 8.73943 5.77048 9.08916 6.02834 9.34703C6.2862 9.60489 6.63594 9.74976 7.00061 9.74976C7.36528 9.74976 7.71502 9.60489 7.97288 9.34703C8.23074 9.08916 8.37561 8.73943 8.37561 8.37476C8.37561 7.55891 8.61754 6.76138 9.0708 6.08303C9.52406 5.40468 10.1683 4.87596 10.922 4.56375C11.6758 4.25154 12.5052 4.16985 13.3054 4.32902C14.1055 4.48818 14.8405 4.88105 15.4174 5.45794C15.9943 6.03483 16.3872 6.76984 16.5464 7.57001C16.7055 8.37018 16.6238 9.19958 16.3116 9.95333C15.9994 10.7071 15.4707 11.3513 14.7923 11.8046C14.114 12.2578 13.3165 12.4998 12.5006 12.4998C12.1359 12.4998 11.7862 12.6446 11.5283 12.9025C11.2705 13.1603 11.1256 13.5101 11.1256 13.8748V16.6248C11.1256 16.9894 11.2705 17.3392 11.5283 17.597C11.7862 17.8549 12.1359 17.9998 12.5006 17.9998C12.8653 17.9998 13.215 17.8549 13.4729 17.597C13.7307 17.3392 13.8756 16.9894 13.8756 16.6248V15.1123C15.4285 14.7953 16.8242 13.9515 17.8264 12.7237C18.8287 11.496 19.3759 9.95965 19.3756 8.37476Z" fill="white"/>
<path id="Vector_2" d="M12.5002 23.4993C13.2596 23.4993 13.8752 22.8837 13.8752 22.1243C13.8752 21.3649 13.2596 20.7493 12.5002 20.7493C11.7409 20.7493 11.1252 21.3649 11.1252 22.1243C11.1252 22.8837 11.7409 23.4993 12.5002 23.4993Z" fill="white"/>
</g>
</g>
</g>
</svg>
