<svg width="26" height="26" viewBox="0 0 26 26" fill="none" xmlns="http://www.w3.org/2000/svg">
<g id="Frame" clip-path="url(#clip0_39_384)">
<path id="Vector" d="M16.7965 14.1387C16.8972 14.1386 16.9937 14.0986 17.0649 14.0274C17.1361 13.9562 17.1761 13.8597 17.1762 13.759V10.7072H18.8415L18.5877 9.94783H16.7965C16.6958 9.94784 16.5992 9.98784 16.528 10.059C16.4568 10.1303 16.4168 10.2268 16.4168 10.3275V13.3786L13.573 13.3734H13.5723C13.5224 13.3733 13.473 13.3831 13.4269 13.4022C13.3808 13.4213 13.3389 13.4493 13.3036 13.4846C13.2683 13.5199 13.2404 13.5619 13.2213 13.608C13.2023 13.6541 13.1925 13.7035 13.1926 13.7534L13.1961 16.9813L9.39554 16.9908C9.29507 16.991 9.19879 17.0311 9.12779 17.1022C9.0568 17.1733 9.01688 17.2696 9.01678 17.3701L9.01327 20.3963L7.85688 20.3987C7.98191 20.3037 8.07389 20.1718 8.11982 20.0216C8.16575 19.8715 8.1633 19.7107 8.11281 19.562L7.31673 16.6587C7.31413 16.6495 7.31135 16.6404 7.30801 16.6313C7.24068 16.4422 7.1243 16.2744 6.97078 16.145L5.97539 15.2853V14.4636L6.85972 14.7775C7.04191 14.8422 7.2419 14.835 7.41893 14.7573C7.59596 14.6796 7.7367 14.5373 7.81246 14.3595L7.96319 14.0057C8.00334 13.9113 8.02391 13.8096 8.02367 13.707C8.02344 13.6043 8.00239 13.5028 7.96181 13.4085C7.92123 13.3142 7.86195 13.2291 7.78756 13.1583C7.71317 13.0876 7.62521 13.0326 7.529 12.9968L5.97539 12.4186V10.9113C5.97493 10.5087 5.81477 10.1226 5.53005 9.83792C5.24533 9.5532 4.8593 9.39304 4.45664 9.39258H2.93789C2.53523 9.39304 2.1492 9.5532 1.86448 9.83792C1.57976 10.1226 1.4196 10.5087 1.41914 10.9113V15.4676C1.41915 15.5683 1.45915 15.6648 1.53035 15.7361C1.60156 15.8073 1.69813 15.8473 1.79883 15.8473V21.7324C1.79917 21.8406 1.82278 21.9475 1.86805 22.0457C1.91331 22.144 1.97919 22.2314 2.06119 22.302H1.2293C1.1286 22.302 1.03202 22.342 0.960817 22.4132C0.889612 22.4844 0.849609 22.5809 0.849609 22.6816C0.849609 22.7823 0.889612 22.8789 0.960817 22.9501C1.03202 23.0213 1.1286 23.0613 1.2293 23.0613H5.58384C5.68453 23.0613 5.78111 23.0213 5.85231 22.9501C5.92351 22.8789 5.96352 22.7823 5.96352 22.6816V21.1621L9.39332 21.1549C9.49383 21.1547 9.59018 21.1147 9.66122 21.0436C9.73226 20.9725 9.77219 20.8761 9.77227 20.7756L9.77579 17.7492L13.5771 17.7398C13.6777 17.7395 13.7741 17.6994 13.8451 17.6281C13.9161 17.5568 13.956 17.4603 13.9559 17.3597L13.9524 14.1335L16.7957 14.1387L16.7965 14.1387ZM6.58886 16.876L7.38365 19.7745C7.38625 19.7837 7.38903 19.7928 7.39237 19.8019L6.68768 20.054L6.13873 17.5979C6.13595 17.5861 6.1328 17.5744 6.12891 17.5627C6.06038 17.3507 5.9305 17.1637 5.7557 17.0255L4.32746 15.8473H5.46435L6.47911 16.7236C6.52789 16.7644 6.56563 16.8168 6.58886 16.876ZM2.17852 10.9113C2.17872 10.71 2.25879 10.517 2.40115 10.3746C2.54352 10.2322 2.73655 10.1522 2.93789 10.152H4.45664C4.65798 10.1522 4.85101 10.2322 4.99338 10.3746C5.13574 10.517 5.21581 10.71 5.21602 10.9113V11.6952L4.71323 10.6195C4.69226 10.5741 4.66254 10.5333 4.62576 10.4995C4.58898 10.4656 4.54588 10.4393 4.49892 10.4222C4.45196 10.405 4.40208 10.3973 4.35213 10.3994C4.30218 10.4016 4.25315 10.4136 4.20786 10.4348C4.16257 10.456 4.12191 10.4859 4.0882 10.5228C4.0545 10.5597 4.02843 10.603 4.01147 10.65C3.99452 10.697 3.98703 10.7469 3.98942 10.7969C3.99181 10.8468 4.00405 10.8958 4.02542 10.941L4.71175 12.4097C4.83771 12.6809 5.06593 12.8913 5.34654 12.9948L7.26443 13.7084L7.1137 14.0619L4.71062 13.2087C4.6155 13.1747 4.53772 13.1044 4.49427 13.0131L3.65518 11.2352C3.634 11.19 3.60411 11.1493 3.5672 11.1157C3.53029 11.082 3.4871 11.0559 3.4401 11.039C3.3931 11.022 3.34322 11.0145 3.29331 11.0169C3.2434 11.0193 3.19446 11.0315 3.14927 11.0528C3.10409 11.0741 3.06356 11.1041 3.03001 11.1412C2.99645 11.1782 2.97053 11.2215 2.95374 11.2685C2.93694 11.3156 2.9296 11.3655 2.93213 11.4154C2.93466 11.4653 2.94701 11.5142 2.96848 11.5593L3.80757 13.3374C3.93781 13.6112 4.17119 13.8222 4.45664 13.9244L5.21602 14.194V15.0879H2.17852V10.9113ZM3.20344 15.8473C3.22658 15.9034 3.26302 15.9531 3.3096 15.9921L3.31759 15.9987L3.31813 21.7324H2.5582V15.8473L3.20344 15.8473ZM5.5831 20.4035C5.48252 20.4037 5.38613 20.4438 5.31509 20.515C5.24404 20.5862 5.20414 20.6826 5.20415 20.7832V22.302H3.81459C3.8966 22.2314 3.96247 22.144 4.00773 22.0457C4.053 21.9475 4.07661 21.8406 4.07695 21.7324V16.625L5.28035 17.6176C5.33573 17.6608 5.37797 17.7186 5.40234 17.7845L5.95444 20.2554C5.95722 20.2671 5.96037 20.2787 5.96408 20.2902C5.97751 20.329 5.99402 20.3665 6.01345 20.4026L5.5831 20.4035Z" fill="white"/>
<path id="Vector_2" d="M25.1084 3.14703C25.1048 3.13985 25.1013 3.13287 25.0972 3.12591C25.0658 3.06828 25.0185 3.02092 24.9609 2.98948C24.9532 2.98496 24.9454 2.98111 24.9375 2.97716C24.9141 2.96556 24.8896 2.95641 24.8643 2.94987C24.8584 2.94835 24.8529 2.94596 24.8469 2.94472C24.8168 2.93876 24.7861 2.93648 24.7554 2.93792C24.747 2.93824 24.7388 2.9394 24.7303 2.94031C24.7028 2.94314 24.6756 2.94899 24.6493 2.95778C24.6459 2.95895 24.6423 2.95876 24.6389 2.96004L14.3873 6.74449C14.3135 6.7717 14.2499 6.82119 14.2055 6.8861C14.161 6.95101 14.1378 7.02814 14.1391 7.10682C14.1403 7.18549 14.166 7.26182 14.2126 7.32525C14.2592 7.38868 14.3243 7.43606 14.399 7.46086L19.0772 9.01613L20.6399 13.6908C20.6648 13.7655 20.7123 13.8305 20.7758 13.877C20.8393 13.9235 20.9157 13.9491 20.9944 13.9502H21C21.0776 13.9502 21.1535 13.9264 21.2172 13.8819C21.2809 13.8374 21.3295 13.7745 21.3563 13.7016L25.1266 3.44727C25.128 3.44358 25.1278 3.43966 25.129 3.43594C25.1378 3.40947 25.1436 3.38212 25.1463 3.35438C25.1471 3.34673 25.1482 3.33933 25.1485 3.33168C25.15 3.30019 25.1476 3.26864 25.1413 3.23775C25.1404 3.23341 25.1386 3.2294 25.1376 3.2251C25.1308 3.19808 25.121 3.17189 25.1084 3.14703ZM23.2799 4.27116L19.2743 8.28157L15.666 7.08192L23.2799 4.27116ZM21.017 12.4239L19.8116 8.81806L23.8176 4.80727L21.017 12.4239ZM3.69766 9.013C4.11068 9.013 4.51443 8.89052 4.85784 8.66106C5.20126 8.43159 5.46892 8.10545 5.62698 7.72387C5.78503 7.34228 5.82639 6.9224 5.74581 6.51731C5.66524 6.11222 5.46635 5.74013 5.17429 5.44808C4.88224 5.15602 4.51015 4.95714 4.10506 4.87656C3.69997 4.79598 3.28009 4.83734 2.89851 4.99539C2.51692 5.15345 2.19078 5.42111 1.96131 5.76453C1.73185 6.10794 1.60938 6.51169 1.60938 6.92471C1.61 7.47837 1.83022 8.00917 2.22171 8.40066C2.6132 8.79216 3.144 9.01237 3.69766 9.013ZM3.69766 5.59581C3.96049 5.59581 4.21742 5.67375 4.43596 5.81977C4.65449 5.96579 4.82482 6.17334 4.92541 6.41616C5.02599 6.65899 5.0523 6.92619 5.00103 7.18397C4.94975 7.44175 4.82319 7.67854 4.63733 7.86439C4.45148 8.05024 4.2147 8.17681 3.95691 8.22809C3.69913 8.27936 3.43193 8.25305 3.18911 8.15246C2.94628 8.05188 2.73873 7.88155 2.59271 7.66302C2.44669 7.44448 2.36875 7.18755 2.36875 6.92471C2.36918 6.5724 2.50932 6.23463 2.75845 5.98551C3.00757 5.73638 3.34534 5.59623 3.69766 5.59581Z" fill="white"/>
</g>
<defs>
<clipPath id="clip0_39_384">
<rect width="24.3" height="24.3" fill="white" transform="translate(0.849609 0.849609)"/>
</clipPath>
</defs>
</svg>
