<svg width="679" height="382" viewBox="0 0 679 382" fill="none" xmlns="http://www.w3.org/2000/svg">
<g clip-path="url(#clip0_38_114)">
<mask id="mask0_38_114" style="mask-type:luminance" maskUnits="userSpaceOnUse" x="0" y="0" width="679" height="382">
<path d="M679 0H0V381.938H679V0Z" fill="white"/>
</mask>
<g mask="url(#mask0_38_114)">
<mask id="mask1_38_114" style="mask-type:luminance" maskUnits="userSpaceOnUse" x="0" y="0" width="679" height="382">
<path d="M0 0H679V381.937H0V0Z" fill="white"/>
</mask>
<g mask="url(#mask1_38_114)">
<path d="M553.783 97.7977C556.169 102.012 559.25 105.711 562.84 108.78L558.815 118.231L573.132 125.845L578.718 117.225C583.269 118.484 588.041 118.975 592.887 118.593L596.727 128.122L612.247 123.376L610.106 113.331C614.32 110.945 618.017 107.86 621.086 104.272L630.537 108.299L638.151 93.9803L629.53 88.3944C630.79 83.843 631.278 79.0531 630.901 74.2249L640.428 70.3838L635.684 54.8647L625.636 57.0084C623.244 52.7739 620.168 49.0931 616.578 46.0242L620.602 36.5736L606.286 28.9607L600.701 37.5844C596.149 36.3223 591.359 35.836 586.531 36.213L582.69 26.6841L567.171 31.4285L569.313 41.4747C565.082 43.8679 561.401 46.9422 558.33 50.5337L548.88 46.5105L541.267 60.8239L549.889 66.4116C548.628 70.963 548.137 75.7347 548.519 80.5811L538.99 84.4204L543.736 99.9413L553.783 97.7977ZM561.7 85.9648C556.972 70.4967 565.679 54.1216 581.147 49.3918C596.615 44.6637 612.991 53.3713 617.719 68.8412C622.447 84.3093 613.739 100.683 598.271 105.412C582.803 110.14 566.428 101.433 561.7 85.9648Z" fill="#ECF0F4"/>
<path d="M673.766 346.601C673.766 351.326 523.816 355.152 338.848 355.152C153.877 355.152 3.9314 351.326 3.9314 346.601C3.9314 341.879 153.877 338.054 338.848 338.054C523.816 338.054 673.766 341.879 673.766 346.601Z" fill="#ECF0F4"/>
<path d="M46.5334 197.002C46.5334 197.002 72.1042 191.675 93.7682 206.222C115.432 220.767 122.087 256.8 122.087 256.8L52.9953 212.358L46.5334 197.002Z" fill="#343751"/>
<path d="M50.6002 350.48L48.8081 350.156L67.0209 249.417L68.813 249.739L50.6002 350.48Z" fill="#2A2B3A"/>
<path d="M127.387 350.48L109.175 249.74L110.967 249.417L129.179 350.156L127.387 350.48Z" fill="#2A2B3A"/>
<path d="M111.37 350.48L93.157 249.74L94.9491 249.417L113.162 350.156L111.37 350.48Z" fill="#2A2B3A"/>
<path d="M117.378 289.515H60.8599V287.693H117.378V289.515Z" fill="#2A2B3A"/>
<path d="M46.5335 197.002C46.5335 197.002 89.3608 221.852 122.089 256.8C122.089 256.8 82.8971 264.073 63.5023 247.506C44.1094 230.942 46.5335 197.002 46.5335 197.002Z" fill="#92CEFF"/>
<path d="M594.243 288.813C591.074 304.768 582.933 320.23 569.838 330.193C554.321 342.031 534.268 342.814 515.509 342.871C493.636 342.942 480.905 344.725 459.596 339.061C444.389 335.017 434.718 322.944 430.838 310.177C429.909 307.154 429.308 304.112 429.035 301.107C425.593 263.5 449.361 241.24 468.921 232.463C479.612 227.016 488.791 219.477 495.931 209.641C502.76 200.243 507.769 189.461 516.22 181.284C528.768 169.154 545.469 167.425 559.657 176.821C560.55 177.404 561.406 178.023 562.262 178.697C576.704 189.953 582.66 209.169 587.869 225.959C594.152 246.103 598.432 267.778 594.243 288.813Z" fill="#ECF0F4"/>
<path d="M594.243 288.811C591.074 304.765 582.933 320.228 569.838 330.19C554.321 342.029 534.269 342.812 515.509 342.868C493.636 342.939 480.905 344.724 459.596 339.06C444.389 335.017 434.718 322.942 430.838 310.174C433.989 310.541 437.468 312.105 439.744 312.925C450.563 316.769 460.616 320.301 472.236 320.774C484.366 321.266 496.641 319.991 508.661 318.625C521.611 317.152 535.707 315.802 548.274 312.05C572.078 304.893 580.165 271.108 580.547 249.382C580.984 224.21 572.206 200.169 559.985 178.498C559.657 177.913 559.566 177.349 559.657 176.821C560.55 177.403 561.406 178.023 562.262 178.697C576.704 189.952 582.66 209.168 587.869 225.959C594.152 246.102 598.432 267.775 594.243 288.811Z" fill="#E3EAEE"/>
<path d="M570.381 287.438C564.425 311.375 540.366 305.476 517.728 305.54C496.381 305.6 493.062 282.492 494.428 282.388C504.037 269.211 513.218 265.191 524.108 260.077C526.949 258.744 535.216 256.15 537.725 253.83C539.727 251.98 535.62 250.171 539.989 250.25C541.095 250.27 542.066 246.669 545.724 242.846C551.376 236.941 572.816 222.581 572.965 226.16C573.102 229.394 586.547 246.756 584.456 258.332C581.899 272.487 571.068 284.679 570.381 287.438Z" fill="#ECF0F4"/>
<path d="M540.145 253.763C540.145 253.763 543.157 248.58 548.224 242.653C552.724 237.388 558.845 231.538 565.914 228.212C565.914 228.212 542.237 239.355 532.22 256.657L540.145 253.763Z" fill="#16161D"/>
<path d="M494.427 282.385C494.427 282.385 520.969 252.38 560.678 252.726C560.678 252.726 522.264 245.63 494.427 282.385Z" fill="#16161D"/>
<path d="M629.529 292.579C629.427 292.313 629.341 292.045 629.252 291.779C629.696 291.743 629.966 291.083 629.471 290.843C629.272 290.746 629.07 290.644 628.87 290.544C627.05 283.924 628.555 276.979 632.951 271.565C636.699 266.95 642.376 262.772 642.852 256.368C643.3 250.356 639.08 244.994 638 239.221C637.342 235.702 637.351 231.781 639.304 228.646C640.772 226.291 644.128 224.791 644.819 221.966C646.108 216.681 638.745 217.879 636.178 219.092C631.228 221.432 627.44 226.095 626.331 231.473C625.218 236.871 626.781 241.854 629.831 246.278C631.221 248.296 631.933 250.065 630.718 252.418C629.862 254.075 628.576 255.567 627.309 256.924C624.814 259.601 621.843 261.761 618.567 263.378C615.664 264.811 612.516 265.979 611.278 269.246C610.409 271.547 610.673 274.115 611.595 276.351C614.339 283.01 621.694 288.055 628.019 291.253C628.183 291.796 628.352 292.338 628.556 292.87C628.789 293.477 629.764 293.191 629.529 292.579Z" fill="#343751"/>
<path d="M631.789 250.582C631.421 245.019 629.108 239.315 624.116 236.405C620.641 234.376 617.383 233.228 615.545 229.338C613.99 226.049 613.651 222.281 613.376 218.702C612.965 213.338 612.473 207.558 608.901 203.223C605.505 199.098 599.879 198.648 595.697 201.923C589.958 206.416 590.015 214.271 591.28 220.795C592.628 227.743 595.307 234.438 599.063 240.433C601.168 243.792 603.614 246.95 606.362 249.809C609.327 252.896 613.023 255.415 615.525 258.925C620.738 266.23 618.452 275.783 616.104 283.783C615.899 283.33 615.092 283.59 615.17 284.177C615.323 285.299 615.476 286.424 615.629 287.546C615.669 287.834 616.006 287.949 616.248 287.909C623.379 286.75 625.449 279.278 627.023 273.293C628.972 265.878 632.308 258.4 631.789 250.582Z" fill="#92CEFF"/>
<path d="M613.673 265.731C610.722 261.85 606.943 259.195 602.927 256.518C598.199 253.367 595.09 249.484 591.837 244.907C589.956 242.262 587.113 237.837 583.21 238.993C579.735 240.028 578.436 244.504 578.473 247.708C578.584 257.066 586.951 263.111 594.507 266.824C597.134 268.116 599.82 269.285 602.428 270.612C605.391 272.119 608.77 273.721 610.383 276.787C611.547 278.996 612.161 281.407 613.525 283.529C614.984 285.798 616.896 287.667 619.091 289.211C619.069 289.39 619.058 289.568 619.033 289.747C618.945 290.393 619.949 290.541 620.038 289.894C621.196 281.362 618.891 272.592 613.673 265.731Z" fill="#92CEFF"/>
<path d="M633.422 345.284H608.314L601.096 282.829H640.636L633.422 345.284Z" fill="#BDD0E1"/>
</g>
<mask id="mask2_38_114" style="mask-type:luminance" maskUnits="userSpaceOnUse" x="166" y="166" width="222" height="186">
<path d="M166.213 166.921H387.949V351.524H166.213V166.921Z" fill="white"/>
</mask>
<g mask="url(#mask2_38_114)">
<path d="M267.147 208.465H261.455L277.393 167.038H283.085L267.147 208.465Z" fill="#BDD0E1"/>
<path d="M206.415 213.467H267.147V208.466H206.415V213.467Z" fill="#BDD0E1"/>
<path d="M387.918 218.223H166.935V213.368H387.918V218.223Z" fill="#2A2B3A"/>
<path d="M167.24 351.481C167.2 351.481 167.158 351.481 167.118 351.474C166.619 351.408 166.27 350.949 166.337 350.45L184.55 215.676C184.617 215.177 185.072 214.796 185.571 214.895C186.07 214.96 186.42 215.421 186.353 215.92L168.14 350.694C168.078 351.151 167.69 351.481 167.24 351.481Z" fill="#2A2B3B"/>
<path d="M245.821 351.483C245.371 351.483 244.981 351.151 244.92 350.694L226.707 215.92C226.639 215.421 226.989 214.962 227.488 214.896C227.985 214.796 228.441 215.177 228.51 215.676L246.723 350.45C246.79 350.949 246.44 351.408 245.941 351.474C245.901 351.481 245.861 351.483 245.821 351.483Z" fill="#2A2B3B"/>
<path d="M297.378 351.481C297.338 351.481 297.297 351.481 297.256 351.474C296.757 351.408 296.408 350.949 296.475 350.45L314.686 215.676C314.753 215.177 315.209 214.796 315.71 214.895C316.209 214.96 316.558 215.421 316.491 215.92L298.278 350.694C298.216 351.151 297.828 351.481 297.378 351.481Z" fill="#2A2B3B"/>
<path d="M375.957 351.483C375.507 351.483 375.115 351.151 375.054 350.694L356.841 215.92C356.773 215.421 357.125 214.962 357.624 214.896C358.119 214.796 358.576 215.177 358.646 215.676L376.858 350.45C376.926 350.949 376.576 351.408 376.077 351.474C376.037 351.481 375.997 351.483 375.957 351.483Z" fill="#2A2B3B"/>
</g>
<mask id="mask3_38_114" style="mask-type:luminance" maskUnits="userSpaceOnUse" x="11" y="72" width="283" height="320">
<path d="M293.925 72.7791H11.0086V391.06H293.925V72.7791Z" fill="white"/>
</mask>
<g mask="url(#mask3_38_114)">
<mask id="mask4_38_114" style="mask-type:luminance" maskUnits="userSpaceOnUse" x="-386" y="72" width="680" height="383">
<path d="M293.926 72.7784H-385.074V454.716H293.926V72.7784ZM48.2301 197.881C48.2301 197.881 93.0094 225.271 123.468 257.382C139.785 274.583 64.0557 281.253 64.0557 281.253L34.5263 249.424C34.5263 249.424 20.5573 225.553 20.7341 224.846C20.9109 224.139 48.2301 197.881 48.2301 197.881Z" fill="white"/>
</mask>
<g mask="url(#mask4_38_114)">
<path d="M98.8412 137.959C101.621 133.583 105.651 127.215 110.34 122.448C113.537 123.924 115.018 123.623 118.026 125.457C113.705 137.465 114.234 150.948 112.105 163.512C112.031 163.945 111.683 164.474 111.154 164.38L100.316 162.446C99.7473 162.346 99.2836 161.875 99.4903 161.257C101.347 155.66 103.302 150.098 105.297 144.553C102.432 149.647 100.225 155.077 98.1421 160.597C97.9225 161.178 97.3066 161.371 96.7745 161.075C93.4314 159.212 89.6233 158.614 90.4213 154.396C91.5376 148.497 95.6983 142.905 98.8412 137.959Z" fill="#2A2B3B"/>
<path d="M186.662 205.969C186.724 205.946 186.79 205.935 186.853 205.909C187.78 205.503 187.071 203.733 186.139 204.138C186.076 204.166 186.006 204.166 185.941 204.189C186.101 203.683 185.795 202.856 184.777 202.943C184.48 202.967 180.307 203.369 177.06 201.734C177.861 201.557 179.201 201.283 180.146 201.395C181.152 201.516 181.416 199.948 180.405 199.84C180.244 199.823 178.931 199.713 178.748 199.753C174.082 199.648 169.182 201.098 164.998 203.134C164.291 203.413 163.591 203.719 162.906 204.081C162.661 204.211 162.554 204.546 162.572 204.803C162.655 206.11 163.511 208.894 164.009 210.107C164.057 210.23 164.139 210.322 164.228 210.402C163.69 211.029 164.503 212.088 165.269 211.547C167.316 210.103 171.408 208.053 171.445 208.042C175.787 209.148 180.01 210.149 184.476 209.716C185.378 209.628 185.443 208.19 184.714 207.985C184.708 207.977 184.703 207.968 184.698 207.96C184.711 207.959 184.724 207.955 184.739 207.954C185.005 207.951 186.217 207.726 186.574 207.602C187.258 207.364 187.11 206.301 186.662 205.969Z" fill="#EA3D71"/>
<path d="M176.902 203.875C176.918 203.884 176.934 203.893 176.952 203.898C180.867 205.266 185.772 204.449 185.979 204.414C186.103 204.393 186.186 204.275 186.165 204.15C186.142 204.029 186.027 203.945 185.901 203.966C185.852 203.973 180.904 204.799 177.1 203.471C176.981 203.429 176.853 203.493 176.812 203.609C176.777 203.713 176.817 203.819 176.902 203.875Z" fill="#2A2B3B"/>
<path d="M176.719 205.947C176.731 205.955 176.746 205.963 176.759 205.969C179.982 207.267 186.426 206.238 186.697 206.195C186.823 206.175 186.909 206.059 186.888 205.934C186.867 205.81 186.752 205.726 186.627 205.745C186.562 205.758 180.031 206.795 176.928 205.545C176.811 205.499 176.679 205.554 176.631 205.671C176.59 205.775 176.629 205.889 176.719 205.947Z" fill="#2A2B3B"/>
<path d="M176.74 207.669C176.757 207.68 176.775 207.689 176.796 207.694C179.306 208.493 184.507 208.222 184.727 208.208C184.852 208.203 184.947 208.095 184.941 207.972C184.936 207.842 184.828 207.748 184.701 207.755C184.648 207.757 179.364 208.033 176.933 207.262C176.814 207.221 176.685 207.29 176.647 207.408C176.615 207.51 176.656 207.614 176.74 207.669Z" fill="#2A2B3B"/>
<path d="M170.246 197.606C155.481 194.033 138.473 196.676 128.966 196.56C119.46 196.444 115.293 211.313 117.711 213.372C120.129 215.436 146.693 225.567 162.426 223.781C162.426 223.781 173.211 198.323 170.246 197.606Z" fill="#ECF0F4"/>
<path d="M113.396 142.008C119.567 140.575 128.027 175.432 139.646 196.351C147.953 211.304 119.585 216.799 116.658 212.695C113.733 208.59 100.716 144.953 113.396 142.008Z" fill="#ECF0F4"/>
<path d="M200.525 239.729C210.694 253.737 219.11 303.355 219.151 318.216C209.54 318.227 196.3 323.34 183.514 326.974C183.471 327.078 183.391 326.858 183.244 326.367C182.106 322.03 177.867 296.142 174.61 283.6C173.23 278.19 171.378 272.961 169.39 267.745C167.823 263.665 166.158 259.598 164.584 255.5C164.555 255.416 164.512 255.337 164.485 255.249C163.295 252.227 162.143 249.163 161.101 246.082C158.188 237.434 197.909 236.124 200.525 239.729Z" fill="#7F60F9"/>
<path d="M183.51 326.981C182.707 325.577 217.547 316.164 219.145 318.22C221.318 321.014 185.853 331.085 183.51 326.981Z" fill="#16161D"/>
<path d="M174.916 261.038C173.914 260.805 135.795 258.169 122.5 253.769C111.727 250.206 96.1412 247.184 95.1033 235.499C93.5107 217.282 99.6664 209.656 112.318 207.528C119.046 206.401 128.299 203.731 134.33 206.182C142.865 209.672 200.478 227.353 202.599 244.754C204.487 260.247 186.87 263.794 174.916 261.038Z" fill="#7F60F9"/>
<path d="M151.711 220.609C151.711 220.609 194.112 228.708 197.476 242.576C200.839 256.444 165.592 315.281 165.592 315.281L189.431 246.379L151.711 220.609Z" fill="#16161D"/>
<path d="M194.914 247.159C194.932 248.754 194.735 250.201 194.324 251.51C191.353 261.618 177.199 263.785 167.088 261.457C166.891 261.423 165.37 261.296 162.937 261.081C160.396 260.849 156.853 260.544 152.791 260.153C140.247 258.916 122.799 256.894 114.657 254.194C103.885 250.631 88.2989 247.607 87.261 235.923C86.5452 227.799 87.3862 221.785 89.6588 217.421C92.4504 211.999 97.4608 209.134 104.475 207.954C111.204 206.827 117.628 210.243 123.658 212.695C132.194 216.184 192.642 227.781 194.771 245.175C194.771 245.209 194.771 245.247 194.789 245.281C194.86 245.926 194.896 246.571 194.914 247.159Z" fill="#977DFE"/>
<path d="M194.797 249.46C194.775 249.584 194.738 249.705 194.718 249.829C194.471 250.876 194.038 252.291 193.424 254.022C187.809 270.395 168.098 314.491 158.94 326.195C151.379 320.263 137.813 316.092 125.518 311.046C125.418 311.101 125.491 310.878 125.679 310.402C127.467 306.29 140.142 283.322 145.336 271.449C147.596 266.347 149.373 261.09 151.036 255.761C152.328 251.584 153.536 247.359 154.829 243.165C154.862 243.081 154.876 242.993 154.906 242.907C155.84 239.797 156.828 236.676 157.916 233.611C160.974 225.013 194.287 236.662 194.9 247.955C194.945 248.453 194.899 248.952 194.797 249.46Z" fill="#977DFE"/>
<path d="M164.6 253.959C164.296 255.283 163.706 257.788 162.936 261.079C159.143 277.383 142.213 308.934 143.233 317.345C143.233 317.345 127.448 310.775 125.515 311.044C125.515 311.044 136.123 290.188 143.159 276.177C145.663 271.189 148.354 265.309 149.123 259.78C136.579 258.545 122.799 256.893 114.657 254.191C103.884 250.63 88.2983 247.604 87.2604 235.921C86.5446 227.797 87.3857 221.784 89.6583 217.418L94.8656 214.144C94.8656 214.144 107.356 238.856 129.563 243.329C139.745 245.387 148.334 246.139 154.472 247.105C161.719 248.25 165.567 249.7 164.6 253.959Z" fill="#7F60F9"/>
<path d="M125.507 311.05C125.745 309.449 158.946 323.592 158.932 326.196C158.912 329.734 124.811 315.722 125.507 311.05Z" fill="#16161D"/>
<path d="M127.592 324.887C128.179 322.747 128.941 321.215 131.225 318.851C131.237 318.817 131.26 318.808 131.26 318.808C133.043 316.976 134.05 316.11 135.718 314.26C139.878 315.933 145.29 317.865 148.176 319.717C146.138 322.453 144.141 325.535 143.812 327.457C143.753 327.763 143.728 328.081 143.735 328.416C143.771 332.83 148.486 338.188 149.728 341.785C150.098 342.742 150.186 343.571 149.883 344.211C148.375 347.493 126.218 330.044 127.592 324.887Z" fill="#E93D71"/>
<path d="M149.983 343.799C149.971 343.954 149.928 344.06 149.863 344.194C148.321 347.748 125.595 330.004 126.937 325.027L126.935 325.002C126.96 324.718 127.039 324.428 127.141 324.136C127.982 321.672 130.825 319.188 131.231 318.845C131.231 318.818 131.257 318.816 131.257 318.816C135.498 326.212 143.734 328.402 143.734 328.402C143.763 332.28 147.376 336.877 149.119 340.351C149.872 341.648 150.235 342.852 149.983 343.799Z" fill="#977DFE"/>
<path d="M149.983 343.801C149.97 343.956 149.929 344.06 149.865 344.194C148.322 347.748 125.596 330.004 126.938 325.028L126.936 325.004C126.961 324.72 127.04 324.428 127.142 324.136C127.906 325.819 129.674 329.006 133.307 332.343C138.001 336.664 143.104 340.979 149.983 343.801Z" fill="#2A2B3A"/>
<path d="M200.299 340.159C198.898 338.437 198.094 336.927 197.495 333.697C197.475 333.665 197.48 333.64 197.48 333.64C197.024 331.128 195.455 325.224 194.918 322.794C198.729 321.373 205.361 320.212 207.839 319.523C208.881 322.771 210.438 327.064 211.81 328.447C212.027 328.674 212.272 328.88 212.548 329.068C216.162 331.605 223.263 330.877 226.91 331.956C227.905 332.21 228.631 332.618 228.976 333.237C230.771 336.372 203.699 344.273 200.299 340.159Z" fill="#E93D71"/>
<path d="M228.698 332.916C228.816 333.016 228.882 333.113 228.952 333.245C230.949 336.563 203.304 344.755 200.031 340.775L200.011 340.761C199.795 340.573 199.603 340.342 199.424 340.09C197.907 337.973 197.538 334.217 197.495 333.685C197.474 333.673 197.486 333.65 197.486 333.65C205.97 334.493 212.535 329.06 212.535 329.06C215.71 331.289 221.549 331.017 225.389 331.617C226.883 331.758 228.073 332.161 228.698 332.916Z" fill="#977DFE"/>
<path d="M228.698 332.915C228.816 333.015 228.881 333.111 228.951 333.244C230.948 336.562 203.304 344.754 200.031 340.774L200.01 340.76C199.793 340.572 199.604 340.341 199.425 340.089C201.237 340.443 204.861 340.854 209.685 339.836C215.931 338.526 222.407 336.875 228.698 332.915Z" fill="#2A2B3A"/>
<path d="M114.856 134.444C114.856 134.444 112.298 140.912 111.964 142.526C111.861 143.02 110.76 144.506 109.864 145.044C106.945 142.699 104.401 143.073 103.498 142.061C104.348 140.068 106.12 137.553 107.047 134.015C107.975 130.478 114.856 134.444 114.856 134.444Z" fill="#E93D71"/>
<path d="M75.9631 223.576C75.9631 223.576 79.3196 152.467 94.6889 144.588C99.3262 142.211 103.932 141.101 108.066 141.326C108.631 141.356 110.974 141.711 111.575 141.872C116.978 143.31 121.179 147.462 122.941 154.527C126.039 166.939 131.334 183.04 134.383 189.358C137.339 195.488 146.123 207.347 146.123 207.347C146.123 207.347 108.624 227.505 75.9631 223.576Z" fill="#F0F5F8"/>
<path d="M96.6804 148.776C96.6804 148.776 111.983 168.344 116.616 188.518C121.247 208.695 135.972 212.1 135.972 212.1C135.972 212.1 108.13 226.951 75.9638 223.577C75.9638 223.577 80.2078 164.298 96.6804 148.776Z" fill="#E3EAEE"/>
<path d="M145.065 213.091C145.226 213.783 144.553 214.608 143.794 214.13C143.783 214.124 143.773 214.121 143.764 214.115C144.07 214.818 143.364 215.793 142.544 215.298C140.845 214.278 139.057 213.144 136.949 213.211C135.196 213.265 133.509 214.341 131.941 214.985C130.598 215.535 129.364 215.918 127.946 216.187C127.134 216.34 126.315 216.462 125.501 216.618C119.182 217.827 119.778 208.915 125.934 208.424C128.506 208.218 131.028 207.663 133.388 206.996C137.385 205.865 141.01 205.766 144.985 207.086C146.09 207.453 145.674 209.227 144.56 208.857C142.362 208.126 140.384 208.005 138.456 208.161C138.479 208.213 138.514 208.254 138.53 208.305C141.195 208.833 143.55 209.853 145.781 211.424C146.676 212.054 145.957 213.509 145.065 213.091Z" fill="#EA3D71"/>
<path d="M141.714 209.461C141.798 209.468 141.882 209.43 141.928 209.353C141.995 209.244 141.959 209.106 141.853 209.04C141.157 208.617 138.684 208.104 138.58 208.084C138.469 208.038 138.338 208.136 138.311 208.26C138.285 208.382 138.364 208.504 138.487 208.529C139.18 208.67 141.096 209.113 141.615 209.429C141.648 209.448 141.68 209.458 141.714 209.461Z" fill="#2A2B3B"/>
<path d="M145.049 213.317C145.125 213.324 145.204 213.294 145.252 213.227C145.328 213.126 145.306 212.985 145.205 212.91C145.172 212.885 141.798 210.423 137.76 209.681C137.632 209.64 137.518 209.736 137.494 209.862C137.47 209.984 137.553 210.107 137.677 210.127C141.614 210.852 144.903 213.251 144.935 213.274C144.969 213.301 145.009 213.313 145.049 213.317Z" fill="#2A2B3B"/>
<path d="M143.746 214.341C143.827 214.348 143.909 214.315 143.956 214.241C144.025 214.135 143.995 213.995 143.89 213.926C143.744 213.831 140.379 211.65 137.715 211.418C137.643 211.411 137.574 211.407 137.505 211.401C137.379 211.396 137.272 211.492 137.266 211.618C137.261 211.742 137.354 211.845 137.474 211.856C137.535 211.85 137.605 211.865 137.674 211.871C140.227 212.093 143.606 214.285 143.641 214.307C143.674 214.328 143.708 214.338 143.746 214.341Z" fill="#2A2B3B"/>
<path d="M132.317 201.855C117.437 198.795 100.531 202.029 91.0247 202.24C81.5212 202.453 77.8711 217.456 80.3585 219.434C82.8476 221.411 109.747 230.615 125.409 228.284C125.409 228.284 135.304 202.471 132.317 201.855Z" fill="white"/>
<path d="M94.6706 149.417C101.002 149.639 109.105 185.782 105.268 202.452C101.431 219.121 81.2206 223.248 79.4614 218.526C77.7033 213.801 81.6627 148.966 94.6706 149.417Z" fill="white"/>
<path d="M106.802 126.251C106.802 126.251 106.726 136.247 112.814 137.542C118.903 138.835 117.482 124.754 116.63 124.218C115.774 123.686 110.038 121.307 106.802 126.251Z" fill="#E93D71"/>
<path d="M113.846 120.046C117.778 120.51 121.979 122.74 121.218 126.974C121.133 127.454 120.813 127.872 120.27 127.84C117.062 127.657 114.088 126.794 111.264 125.318C111.064 125.814 110.844 126.309 110.583 126.795C109.982 127.907 109.175 129.815 107.91 130.342C105.361 131.402 104.419 127.856 104.625 126.06C105.154 121.419 109.856 118.947 113.846 120.046Z" fill="#2A2B3B"/>
<path d="M87.5561 141.69C93.0005 133.121 103.232 116.901 113.845 120.047C114.415 120.216 110.995 120.785 110.983 121.401C110.926 124.175 109.293 125.852 108.359 128.381C108.498 128.577 108.584 130.547 108.474 130.85C104.088 142.935 102.962 154.605 100.82 167.243C100.746 167.676 100.398 168.205 99.8675 168.111C96.2567 167.466 92.6435 166.823 89.0309 166.177C88.4623 166.077 88.0003 165.607 88.2052 164.988C90.0622 159.391 92.0162 153.831 94.0135 148.285C91.1483 153.378 88.9399 158.808 86.8594 164.327C86.6375 164.909 86.0216 165.102 85.4912 164.807C82.1464 162.943 78.3383 162.345 79.138 158.128C80.2526 152.228 84.4151 146.637 87.5561 141.69Z" fill="#2A2B3B"/>
<path d="M109.642 128.59C109.642 128.59 109.036 126.637 107.298 126.587C105.557 126.535 104.44 130.498 107.243 131.365C110.044 132.233 109.642 128.59 109.642 128.59Z" fill="#E93D71"/>
<path d="M108.134 130.822C107.914 130.473 107.337 130.764 107.56 131.116C107.903 131.664 108.186 133.079 107.225 133.19C106.365 133.29 105.386 131.976 106.301 131.385C106.643 131.161 106.356 130.585 106.009 130.809C104.66 131.685 105.469 133.554 106.868 133.81C108.602 134.128 108.826 131.922 108.134 130.822Z" fill="#FFD256"/>
<path d="M76.9018 158.506C83.0779 142.828 96.2425 125.497 103.023 121.602C109.737 117.741 114.232 120.805 114.274 120.835L114.536 120.465C114.49 120.429 109.761 117.203 102.796 121.206C95.9524 125.141 82.6855 142.58 76.4773 158.34L76.9018 158.506Z" fill="#2A2B3B"/>
</g>
</g>
<mask id="mask5_38_114" style="mask-type:luminance" maskUnits="userSpaceOnUse" x="298" y="98" width="320" height="284">
<path d="M617.279 98.9969H298.998V381.914H617.279V98.9969Z" fill="white"/>
</mask>
<g mask="url(#mask5_38_114)">
<mask id="mask6_38_114" style="mask-type:luminance" maskUnits="userSpaceOnUse" x="-62" y="98" width="680" height="383">
<path d="M617.278 98.9968H-61.7222V480.934H617.278V98.9968ZM567.502 228.453C572.807 228.453 581.56 234.2 581.56 234.2L601.187 265.321L572.718 293.347C572.718 293.347 485.678 297.215 493.502 284.683C503.05 269.388 522.545 259.795 532.712 256.502C539.829 244.61 562.197 228.453 567.502 228.453Z" fill="white"/>
</mask>
<g mask="url(#mask6_38_114)">
<path d="M418.302 254.172C420.857 250.08 423.397 246.729 426.924 243.672C425.714 244.249 423.2 244.898 421.896 245.57C420.256 246.416 419.529 244.083 421.742 242.663C425.059 240.53 432.592 237.314 436.188 236.221C441.219 233.591 442.142 232.105 446.495 228.104C448.199 226.539 452.562 236.181 452.663 237.966C452.785 240.103 450.987 239.7 449.124 240.415C445.304 241.878 442.605 244.724 440.227 248.199C438.006 251.441 435.285 252.806 432.675 255.048C430.982 257.097 430.151 256.079 429.199 255.171C429.085 255.061 429.022 254.924 428.938 254.797C428.415 254.96 427.885 254.949 427.406 254.64C426.658 254.157 426.42 253.342 426.467 252.45C425.409 252.42 424.512 251.726 424.466 250.351C423.785 251.086 420.993 254.688 420.495 255.489C419.455 257.149 417.261 255.84 418.302 254.172Z" fill="#EA3E72"/>
<path d="M431.357 247.604C431.401 247.242 431.327 246.92 431.135 246.648C430.871 246.273 430.491 246.064 430.033 246.041C427.962 245.931 424.596 249.703 424.218 250.133C424.103 250.271 424.113 250.479 424.25 250.6C424.389 250.723 424.597 250.705 424.717 250.568C425.684 249.466 428.514 246.623 429.998 246.701C430.256 246.715 430.445 246.819 430.593 247.03C430.699 247.178 430.732 247.346 430.69 247.585C430.43 249.037 427.421 251.393 426.282 252.178C426.128 252.283 426.092 252.488 426.195 252.64C426.299 252.79 426.506 252.828 426.655 252.724C426.833 252.603 430.984 249.72 431.345 247.701C431.351 247.668 431.353 247.637 431.357 247.604Z" fill="#2A2B3B"/>
<path d="M433.744 249.516C433.832 248.795 433.602 248.103 433.157 247.73C432.863 247.481 431.768 246.82 430.123 248.764C430.002 248.901 430.021 249.112 430.162 249.232C430.301 249.351 430.511 249.332 430.628 249.192C431.473 248.196 432.258 247.84 432.731 248.237C433.197 248.628 433.273 249.682 432.665 250.408C431.351 251.984 428.735 254.533 428.707 254.559C428.577 254.686 428.573 254.897 428.702 255.028C428.83 255.158 429.039 255.16 429.17 255.033C429.279 254.928 431.838 252.437 433.172 250.833C433.509 250.432 433.688 249.968 433.744 249.516Z" fill="#2A2B3B"/>
<path d="M434.637 252.476C434.663 252.266 434.643 252.067 434.565 251.889C434.36 251.427 434.055 251.12 433.657 250.983C433.001 250.756 432.352 251.093 432.324 251.108C432.164 251.194 432.102 251.396 432.188 251.556C432.273 251.719 432.474 251.779 432.636 251.693C432.636 251.693 433.063 251.477 433.445 251.611C433.658 251.687 433.83 251.871 433.956 252.157C434.271 252.85 432.473 254.786 431.168 255.878C431.03 255.994 431.007 256.205 431.126 256.343C431.243 256.486 431.452 256.504 431.593 256.386C432.119 255.946 434.46 253.918 434.637 252.476Z" fill="#2A2B3B"/>
<path d="M436.768 245.71C436.774 245.663 436.771 245.614 436.754 245.566C436.698 245.392 436.511 245.297 436.337 245.355C434.739 245.878 432.218 243.304 431.38 242.269L431.314 242.187L431.212 242.16C430.556 241.977 426.731 243.394 425.117 244.009C424.944 244.073 424.858 244.268 424.924 244.437C424.99 244.608 425.181 244.693 425.353 244.627C427.691 243.736 430.329 242.844 430.959 242.799C431.522 243.467 434.38 246.693 436.544 245.984C436.607 245.963 436.66 245.923 436.7 245.872C436.737 245.825 436.761 245.77 436.768 245.71Z" fill="#2A2B3B"/>
<path d="M438.302 227.687C450.394 217.648 472.608 204.887 482.165 203.972C491.719 203.056 496.593 222.711 494.334 224.989C492.072 227.266 468.474 246.27 447.934 248.694C447.934 248.694 435.932 229.654 438.302 227.687Z" fill="#7F60F9"/>
<path d="M511.001 156.938C489.415 159.034 485.429 188.227 482.476 205.244C479.519 222.26 490.358 228.362 496.043 223.751C513.879 209.278 524.084 155.667 511.001 156.938Z" fill="#7F60F9"/>
<path d="M406.884 343.278C407.982 341.302 408.518 339.647 408.543 336.301C408.558 336.268 408.549 336.245 408.549 336.245C408.558 333.644 409.399 327.067 409.506 324.534C406.186 322.192 400.446 325.419 395.576 325.044C395.109 328.486 394.392 331.961 393.263 333.593C393.088 333.857 392.878 334.106 392.636 334.343C389.465 337.529 382.22 338.062 378.756 339.792C377.805 340.224 377.15 340.763 376.915 341.444C375.674 344.907 404.21 348.005 406.884 343.278Z" fill="#E93D71"/>
<path d="M377.134 341.075C377.032 341.197 376.986 341.304 376.94 341.448C375.529 345.131 404.688 348.42 407.257 343.847L407.277 343.832C407.46 343.605 407.611 343.339 407.746 343.053C408.889 340.663 408.591 336.833 408.541 336.292C408.56 336.274 408.543 336.256 408.543 336.256C400.191 338.609 392.644 334.334 392.644 334.334C389.859 337.134 383.96 337.902 380.217 339.186C378.745 339.591 377.627 340.206 377.134 341.075Z" fill="#FFC32D"/>
<path d="M377.134 341.075C377.032 341.197 376.985 341.304 376.939 341.448C375.528 345.131 404.688 348.42 407.258 343.847L407.278 343.832C407.46 343.605 407.611 343.339 407.746 343.053C405.992 343.732 402.433 344.79 397.418 344.628C390.925 344.426 384.144 343.923 377.134 341.075Z" fill="#2A2B3A"/>
<path d="M441.829 264.872C442.874 264.904 481.016 271.252 495.249 270.609C506.779 270.093 522.894 271.091 527.036 261.737C533.468 247.151 529.462 239.521 517.605 234.95C511.3 232.522 502.927 228.266 496.351 228.932C487.035 229.889 416.242 234.686 409.509 248.487C403.513 260.774 429.353 264.464 441.829 264.872Z" fill="#343751"/>
<path d="M411.67 245.543C403.941 252.544 389.658 300.227 389.658 323.676C399.61 327.406 413.69 328.349 417.579 327.672C417.631 328.779 423.975 299.569 430.333 285.822C434.659 276.472 440.042 282.402 447.056 274.869C449.342 272.436 451.598 269.956 453.758 267.429C460.094 259.986 420.759 237.311 411.67 245.543Z" fill="#343751"/>
<path d="M471.867 235.067C471.867 235.067 431.371 239.812 424.887 252.808C417.503 267.604 424.887 301.806 424.887 301.806L433.474 261.296L471.867 235.067Z" fill="#16161D"/>
<path d="M538.604 239.483C537.711 236.169 535.981 233.473 533.468 231.288C531.464 229.505 528.933 228.046 525.927 226.845C519.48 224.257 514.526 228.831 507.988 229.962C499.519 231.435 439.581 236.753 429.473 254.82C429.454 254.82 429.454 254.837 429.454 254.837C429.436 254.891 429.4 254.93 429.382 254.984C429.218 255.312 429.072 255.638 428.908 255.986C428.872 256.039 428.853 256.093 428.817 256.166C428.289 257.441 428.016 258.771 428.016 260.173C428.016 265.364 433.771 269.591 445.791 271.776C449.962 272.541 454.898 273.049 460.598 273.268C472.309 273.743 487.298 272.978 505.748 270.611C517.185 269.136 533.376 269.809 536.964 258.408C539.441 250.486 539.915 244.328 538.604 239.483Z" fill="#3E4260"/>
<path d="M458.856 253.456C448.914 250.684 428.303 257.729 428.286 257.809C424.806 275.847 423.997 313.172 425.842 327.778C428.918 327.385 432.446 326.988 436.282 326.7C444.518 326.037 454.079 325.862 463.215 327.243C463.127 321.701 459.022 305.176 460.685 292.08C461.237 287.557 463.816 272.377 464.448 263.322C464.593 261.103 464.737 259.468 464.858 258.836C465.382 256.257 462.82 254.545 458.856 253.456Z" fill="#3E4260"/>
<path d="M538.602 239.485C537.709 236.17 535.979 233.475 533.466 231.289C531.936 231.344 530.424 231.799 529.004 232.694C528.858 232.783 528.749 232.892 528.694 233.02C528.202 233.165 527.765 233.73 528.038 234.349C532.245 244.33 519.15 248.5 512.248 250.524C504.999 252.653 497.751 254.747 490.429 256.569C483.162 258.372 475.851 260.391 468.373 260.903C455.983 261.75 453.759 267.431 452.036 278.24C450.925 285.214 441.488 324.233 440.686 326.074C448.225 326.198 455.539 326.242 463.217 327.241C464.51 321.85 461.762 314.07 462.039 300.869C462.205 292.989 462.07 282.019 464.929 273.403C476.64 273.878 487.296 272.978 505.746 270.611C517.184 269.135 533.375 269.809 536.963 258.408C539.44 250.486 539.913 244.33 538.602 239.485Z" fill="#343751"/>
<path d="M440.685 326.402C440.672 326.402 440.66 326.4 440.647 326.399C440.466 326.379 440.339 326.215 440.359 326.036C440.412 325.585 445.617 280.688 448.016 268.442C449.939 258.609 458.155 257.853 476.154 256.199C479.431 255.897 483.146 255.556 487.164 255.123C512.094 252.446 520.581 230.514 520.665 230.29C520.728 230.122 520.918 230.035 521.087 230.099C521.256 230.162 521.342 230.352 521.278 230.521C521.195 230.745 512.562 253.058 487.233 255.78C483.212 256.212 479.495 256.551 476.213 256.851C458.552 258.476 450.489 259.219 448.659 268.568C446.265 280.792 441.064 325.659 441.011 326.111C440.991 326.278 440.849 326.402 440.685 326.402Z" fill="#2A2B3B"/>
<path d="M463.223 327.232C463.852 325.71 427.195 325.488 425.847 327.77C424.017 330.873 461.391 331.678 463.223 327.232Z" fill="#16161D"/>
<path d="M451.603 341.187C452.201 339.009 452.328 337.273 451.559 334.017C451.565 333.98 451.55 333.96 451.55 333.96C450.942 331.434 450.197 328.689 449.7 326.202C444.699 325.967 439.803 326.156 436.315 326.274C436.678 329.729 436.782 333.159 436.071 335.009C435.964 335.31 435.822 335.601 435.641 335.889C433.316 339.735 426.408 341.976 423.452 344.48C422.632 345.123 422.12 345.8 422.053 346.52C421.669 350.177 450.126 346.414 451.603 341.187Z" fill="#E93D71"/>
<path d="M422.18 346.108C422.109 346.25 422.091 346.367 422.08 346.518C421.583 350.428 450.692 346.704 452.102 341.653L452.117 341.631C452.242 341.367 452.324 341.072 452.386 340.764C452.931 338.173 451.732 334.521 451.554 334.008C451.57 333.988 451.548 333.971 451.548 333.971C443.994 338.242 435.649 335.878 435.649 335.878C433.607 339.258 428.057 341.406 424.728 343.54C423.393 344.283 422.452 345.148 422.18 346.108Z" fill="#FFD256"/>
<path d="M422.18 346.109C422.109 346.251 422.089 346.368 422.078 346.519C421.581 350.429 450.69 346.705 452.1 341.655L452.114 341.633C452.24 341.369 452.322 341.074 452.384 340.766C450.841 341.84 447.638 343.714 442.727 344.745C436.371 346.089 429.665 347.211 422.18 346.109Z" fill="#2A2B3A"/>
<path d="M497.646 145.813C497.646 145.813 497.23 153.123 497.332 154.784C497.364 155.291 497.13 157.072 500.762 157.041C504.553 157.009 505.891 155.679 505.663 154.66C505.271 152.616 505.217 149.883 505.513 146.501C505.835 142.819 497.646 145.813 497.646 145.813Z" fill="#E93E72"/>
<path d="M505.619 141.067C505.619 141.067 504.954 151.139 498.727 151.989C492.498 152.84 494.974 138.765 495.874 138.289C496.773 137.816 502.729 135.847 505.619 141.067Z" fill="#E93E72"/>
<path d="M496.525 133.616C497.322 133.105 498.227 132.828 499.193 132.912C500.361 133.009 501.17 133.806 502.289 133.809C504.789 133.812 506.162 135.28 506.118 137.415C506.188 137.467 506.258 137.513 506.318 137.594C507.385 139.037 508.139 140.598 507.387 142.165C508.565 143.839 507.302 146.325 506.312 147.896C506.228 148.03 506.122 148.112 506.013 148.171C505.758 148.806 504.657 149.024 504.276 148.195C503.315 146.11 503.681 143.437 502.657 141.518C502.165 140.599 501.235 139.984 500.496 139.145C499.565 139.548 498.642 139.508 497.72 139.056C495.777 140.36 492.332 140.24 491.493 137.741C490.375 134.425 493.922 133.002 496.525 133.616Z" fill="#16161D"/>
<path d="M502.584 143.209C502.584 143.209 503.342 141.288 505.095 141.366C506.851 141.444 507.68 145.518 504.795 146.181C501.911 146.849 502.584 143.209 502.584 143.209Z" fill="#E93E72"/>
<path d="M538.661 236.868C538.661 236.868 535.992 171.776 517.875 159.065C513 155.644 506.755 154.455 500.768 154.886C500.374 155.638 499.133 157.604 499.133 157.604C499.133 157.604 497.843 155.638 497.595 155.267C490.503 156.467 484.772 160.248 481.657 164.436C465.774 185.792 462.741 230.15 462.741 230.15C462.741 230.15 506.067 243.264 538.661 236.868Z" fill="#977DFE"/>
<path d="M499.071 157.603L500.759 153.328L505.59 154.258L509.62 155.476L499.071 157.603Z" fill="#F1F8FF"/>
<path d="M499.071 157.604L497.826 153.073L495.592 155.375L499.071 157.604Z" fill="#F1F8FF"/>
<path d="M407.554 247.724L466.412 249.66L466.497 247.079L407.637 245.147L407.554 247.724Z" fill="#AABECE"/>
<path d="M466.413 249.658L493.147 246.425L493.233 243.848L466.497 247.081L466.413 249.658Z" fill="#BDD0E1"/>
<path d="M493.235 243.848L426.507 239.697L407.638 245.148L466.497 247.081L493.235 243.848Z" fill="#DCE8EE"/>
<path d="M409.299 245.201L467.809 246.501L461.389 210.713L403.602 208.786L401.573 210.103L409.299 245.201Z" fill="#DCE8EE"/>
<path d="M407.874 245.156L466.497 247.083L460.467 212.653L401.576 210.104L407.874 245.156Z" fill="#BDD0E1"/>
<path d="M459.33 254.502C460.028 250.304 461.471 246.784 463.793 243.695C463.753 243.606 463.744 243.52 463.713 243.427C461.44 244.894 459.415 246.796 457.824 249.767C457.018 251.272 454.601 249.101 455.4 247.608C458.275 242.238 462.342 239.21 467.954 237.32C475.829 234.675 483.649 229.783 488.805 223.271C488.945 223.095 489.112 222.992 489.292 222.932C489.704 222.627 490.316 222.576 490.962 223.071C494.923 226.114 498.884 229.156 502.845 232.197C503.677 232.836 503.717 234.159 503.087 234.602C497.12 238.786 490.726 242.58 484.063 245.684C482.221 246.542 480.449 247.078 478.374 247.468C475.95 247.923 472.919 247.864 470.945 249.322C468.572 251.072 467.875 254.255 467.152 257.2C466.803 258.627 464.954 257.854 464.508 256.577C464.504 256.594 464.499 256.612 464.497 256.628C464.192 257.976 462.547 257.389 461.957 256.258C461.443 257.633 459.051 256.189 459.33 254.502Z" fill="#E93E72"/>
<path d="M461.444 248.17C461.556 248.131 461.648 248.037 461.679 247.912C461.896 247.014 463.489 244.721 464.085 243.913C464.203 243.754 464.169 243.526 464.008 243.409C463.848 243.289 463.621 243.324 463.501 243.484C463.412 243.608 461.271 246.52 460.974 247.74C460.926 247.936 461.046 248.132 461.241 248.179C461.311 248.194 461.38 248.192 461.444 248.17Z" fill="#2A2B3B"/>
<path d="M462.074 256.605C462.197 256.562 462.294 256.453 462.314 256.314C462.323 256.249 463.261 249.953 466.736 245.49C466.861 245.333 466.832 245.106 466.674 244.983C466.516 244.86 466.287 244.892 466.165 245.045C462.568 249.664 461.637 255.946 461.6 256.212C461.571 256.41 461.707 256.595 461.905 256.622C461.964 256.629 462.022 256.623 462.074 256.605Z" fill="#2A2B3B"/>
<path d="M464.627 256.924C464.744 256.884 464.838 256.784 464.862 256.652C464.876 256.589 466.2 250.207 468.844 247.803C468.935 247.721 468.974 247.603 468.96 247.489C468.951 247.418 468.921 247.349 468.868 247.291C468.796 247.211 468.697 247.171 468.598 247.172C468.512 247.172 468.428 247.203 468.358 247.266C465.538 249.832 464.21 256.237 464.156 256.509C464.115 256.706 464.242 256.895 464.437 256.937C464.504 256.949 464.568 256.944 464.627 256.924Z" fill="#2A2B3B"/>
<path d="M474.056 228.501C485.716 217.962 513.696 204.232 523.206 202.918C532.715 201.602 538.407 221.031 536.244 223.401C534.083 225.773 505.332 248.218 484.909 251.502C484.909 251.502 471.772 230.565 474.056 228.501Z" fill="#7F60F9"/>
<path d="M510.067 163.333C493.209 176.978 501.505 207.041 508.418 222.867C515.33 238.696 529.213 227.014 536.139 223.198C537.005 218.182 520.283 155.062 510.067 163.333Z" fill="#7F60F9"/>
</g>
</g>
</g>
</g>
<defs>
<clipPath id="clip0_38_114">
<rect width="679" height="381.938" fill="white"/>
</clipPath>
</defs>
</svg>
